<?xml version="1.0" encoding="utf-8"?>
<svg xmlns="http://www.w3.org/2000/svg" xmlns:xlink="http://www.w3.org/1999/xlink" width="600" height="400" viewBox="0 0 2400 1600">
<defs>
  <clipPath id="clip110">
    <rect x="0" y="0" width="2400" height="1600"/>
  </clipPath>
</defs>
<path clip-path="url(#clip110)" d="
M0 1600 L2400 1600 L2400 0 L0 0  Z
  " fill="#ffffff" fill-rule="evenodd" fill-opacity="1"/>
<defs>
  <clipPath id="clip111">
    <rect x="480" y="0" width="1681" height="1600"/>
  </clipPath>
</defs>
<path clip-path="url(#clip110)" d="
M187.015 419.781 L2352.76 419.781 L2352.76 47.2441 L187.015 47.2441  Z
  " fill="#ffffff" fill-rule="evenodd" fill-opacity="1"/>
<defs>
  <clipPath id="clip112">
    <rect x="187" y="47" width="2167" height="374"/>
  </clipPath>
</defs>
<polyline clip-path="url(#clip112)" style="stroke:#000000; stroke-width:2; stroke-opacity:0.1; fill:none" points="
  248.309,419.781 248.309,47.2441 
  "/>
<polyline clip-path="url(#clip112)" style="stroke:#000000; stroke-width:2; stroke-opacity:0.1; fill:none" points="
  759.097,419.781 759.097,47.2441 
  "/>
<polyline clip-path="url(#clip112)" style="stroke:#000000; stroke-width:2; stroke-opacity:0.1; fill:none" points="
  1269.89,419.781 1269.89,47.2441 
  "/>
<polyline clip-path="url(#clip112)" style="stroke:#000000; stroke-width:2; stroke-opacity:0.1; fill:none" points="
  1780.67,419.781 1780.67,47.2441 
  "/>
<polyline clip-path="url(#clip112)" style="stroke:#000000; stroke-width:2; stroke-opacity:0.1; fill:none" points="
  2291.46,419.781 2291.46,47.2441 
  "/>
<polyline clip-path="url(#clip112)" style="stroke:#000000; stroke-width:2; stroke-opacity:0.1; fill:none" points="
  187.015,409.238 2352.76,409.238 
  "/>
<polyline clip-path="url(#clip112)" style="stroke:#000000; stroke-width:2; stroke-opacity:0.1; fill:none" points="
  187.015,321.376 2352.76,321.376 
  "/>
<polyline clip-path="url(#clip112)" style="stroke:#000000; stroke-width:2; stroke-opacity:0.1; fill:none" points="
  187.015,233.513 2352.76,233.513 
  "/>
<polyline clip-path="url(#clip112)" style="stroke:#000000; stroke-width:2; stroke-opacity:0.1; fill:none" points="
  187.015,145.65 2352.76,145.65 
  "/>
<polyline clip-path="url(#clip112)" style="stroke:#000000; stroke-width:2; stroke-opacity:0.1; fill:none" points="
  187.015,57.7875 2352.76,57.7875 
  "/>
<polyline clip-path="url(#clip110)" style="stroke:#000000; stroke-width:4; stroke-opacity:1; fill:none" points="
  187.015,419.781 187.015,47.2441 
  "/>
<polyline clip-path="url(#clip110)" style="stroke:#000000; stroke-width:4; stroke-opacity:1; fill:none" points="
  187.015,409.238 213.004,409.238 
  "/>
<polyline clip-path="url(#clip110)" style="stroke:#000000; stroke-width:4; stroke-opacity:1; fill:none" points="
  187.015,321.376 213.004,321.376 
  "/>
<polyline clip-path="url(#clip110)" style="stroke:#000000; stroke-width:4; stroke-opacity:1; fill:none" points="
  187.015,233.513 213.004,233.513 
  "/>
<polyline clip-path="url(#clip110)" style="stroke:#000000; stroke-width:4; stroke-opacity:1; fill:none" points="
  187.015,145.65 213.004,145.65 
  "/>
<polyline clip-path="url(#clip110)" style="stroke:#000000; stroke-width:4; stroke-opacity:1; fill:none" points="
  187.015,57.7875 213.004,57.7875 
  "/>
<path clip-path="url(#clip110)" d="M 0 0 M87.7837 411.634 L100.26 411.634 L100.26 415.43 L87.7837 415.43 L87.7837 411.634 Z" fill="#000000" fill-rule="evenodd" fill-opacity="1" /><path clip-path="url(#clip110)" d="M 0 0 M106.14 422.583 L113.779 422.583 L113.779 396.217 L105.469 397.884 L105.469 393.625 L113.733 391.958 L118.408 391.958 L118.408 422.583 L126.047 422.583 L126.047 426.518 L106.14 426.518 L106.14 422.583 Z" fill="#000000" fill-rule="evenodd" fill-opacity="1" /><path clip-path="url(#clip110)" d="M 0 0 M131.117 420.639 L136.001 420.639 L136.001 426.518 L131.117 426.518 L131.117 420.639 Z" fill="#000000" fill-rule="evenodd" fill-opacity="1" /><path clip-path="url(#clip110)" d="M 0 0 M151.07 395.037 Q147.459 395.037 145.631 398.602 Q143.825 402.143 143.825 409.273 Q143.825 416.379 145.631 419.944 Q147.459 423.486 151.07 423.486 Q154.705 423.486 156.51 419.944 Q158.339 416.379 158.339 409.273 Q158.339 402.143 156.51 398.602 Q154.705 395.037 151.07 395.037 M151.07 391.333 Q156.881 391.333 159.936 395.94 Q163.015 400.523 163.015 409.273 Q163.015 418 159.936 422.606 Q156.881 427.189 151.07 427.189 Q145.26 427.189 142.182 422.606 Q139.126 418 139.126 409.273 Q139.126 400.523 142.182 395.94 Q145.26 391.333 151.07 391.333 Z" fill="#000000" fill-rule="evenodd" fill-opacity="1" /><path clip-path="url(#clip110)" d="M 0 0 M87.5522 323.771 L100.029 323.771 L100.029 327.568 L87.5522 327.568 L87.5522 323.771 Z" fill="#000000" fill-rule="evenodd" fill-opacity="1" /><path clip-path="url(#clip110)" d="M 0 0 M115.098 307.174 Q111.487 307.174 109.659 310.739 Q107.853 314.281 107.853 321.41 Q107.853 328.517 109.659 332.082 Q111.487 335.623 115.098 335.623 Q118.733 335.623 120.538 332.082 Q122.367 328.517 122.367 321.41 Q122.367 314.281 120.538 310.739 Q118.733 307.174 115.098 307.174 M115.098 303.471 Q120.908 303.471 123.964 308.077 Q127.043 312.66 127.043 321.41 Q127.043 330.137 123.964 334.744 Q120.908 339.327 115.098 339.327 Q109.288 339.327 106.209 334.744 Q103.154 330.137 103.154 321.41 Q103.154 312.66 106.209 308.077 Q109.288 303.471 115.098 303.471 Z" fill="#000000" fill-rule="evenodd" fill-opacity="1" /><path clip-path="url(#clip110)" d="M 0 0 M132.112 332.776 L136.996 332.776 L136.996 338.656 L132.112 338.656 L132.112 332.776 Z" fill="#000000" fill-rule="evenodd" fill-opacity="1" /><path clip-path="url(#clip110)" d="M 0 0 M142.112 304.096 L160.468 304.096 L160.468 308.031 L146.394 308.031 L146.394 316.503 Q147.413 316.156 148.431 315.994 Q149.45 315.808 150.469 315.808 Q156.256 315.808 159.635 318.98 Q163.015 322.151 163.015 327.568 Q163.015 333.146 159.543 336.248 Q156.07 339.327 149.751 339.327 Q147.575 339.327 145.306 338.956 Q143.061 338.586 140.654 337.845 L140.654 333.146 Q142.737 334.281 144.959 334.836 Q147.181 335.392 149.658 335.392 Q153.663 335.392 156.001 333.285 Q158.339 331.179 158.339 327.568 Q158.339 323.957 156.001 321.85 Q153.663 319.744 149.658 319.744 Q147.783 319.744 145.908 320.16 Q144.057 320.577 142.112 321.457 L142.112 304.096 Z" fill="#000000" fill-rule="evenodd" fill-opacity="1" /><path clip-path="url(#clip110)" d="M 0 0 M114.103 219.312 Q110.492 219.312 108.663 222.876 Q106.858 226.418 106.858 233.548 Q106.858 240.654 108.663 244.219 Q110.492 247.76 114.103 247.76 Q117.737 247.76 119.543 244.219 Q121.371 240.654 121.371 233.548 Q121.371 226.418 119.543 222.876 Q117.737 219.312 114.103 219.312 M114.103 215.608 Q119.913 215.608 122.969 220.214 Q126.047 224.798 126.047 233.548 Q126.047 242.274 122.969 246.881 Q119.913 251.464 114.103 251.464 Q108.293 251.464 105.214 246.881 Q102.159 242.274 102.159 233.548 Q102.159 224.798 105.214 220.214 Q108.293 215.608 114.103 215.608 Z" fill="#000000" fill-rule="evenodd" fill-opacity="1" /><path clip-path="url(#clip110)" d="M 0 0 M131.117 244.913 L136.001 244.913 L136.001 250.793 L131.117 250.793 L131.117 244.913 Z" fill="#000000" fill-rule="evenodd" fill-opacity="1" /><path clip-path="url(#clip110)" d="M 0 0 M151.07 219.312 Q147.459 219.312 145.631 222.876 Q143.825 226.418 143.825 233.548 Q143.825 240.654 145.631 244.219 Q147.459 247.76 151.07 247.76 Q154.705 247.76 156.51 244.219 Q158.339 240.654 158.339 233.548 Q158.339 226.418 156.51 222.876 Q154.705 219.312 151.07 219.312 M151.07 215.608 Q156.881 215.608 159.936 220.214 Q163.015 224.798 163.015 233.548 Q163.015 242.274 159.936 246.881 Q156.881 251.464 151.07 251.464 Q145.26 251.464 142.182 246.881 Q139.126 242.274 139.126 233.548 Q139.126 224.798 142.182 220.214 Q145.26 215.608 151.07 215.608 Z" fill="#000000" fill-rule="evenodd" fill-opacity="1" /><path clip-path="url(#clip110)" d="M 0 0 M115.098 131.449 Q111.487 131.449 109.659 135.014 Q107.853 138.555 107.853 145.685 Q107.853 152.791 109.659 156.356 Q111.487 159.898 115.098 159.898 Q118.733 159.898 120.538 156.356 Q122.367 152.791 122.367 145.685 Q122.367 138.555 120.538 135.014 Q118.733 131.449 115.098 131.449 M115.098 127.745 Q120.908 127.745 123.964 132.352 Q127.043 136.935 127.043 145.685 Q127.043 154.412 123.964 159.018 Q120.908 163.602 115.098 163.602 Q109.288 163.602 106.209 159.018 Q103.154 154.412 103.154 145.685 Q103.154 136.935 106.209 132.352 Q109.288 127.745 115.098 127.745 Z" fill="#000000" fill-rule="evenodd" fill-opacity="1" /><path clip-path="url(#clip110)" d="M 0 0 M132.112 157.051 L136.996 157.051 L136.996 162.93 L132.112 162.93 L132.112 157.051 Z" fill="#000000" fill-rule="evenodd" fill-opacity="1" /><path clip-path="url(#clip110)" d="M 0 0 M142.112 128.37 L160.468 128.37 L160.468 132.305 L146.394 132.305 L146.394 140.778 Q147.413 140.43 148.431 140.268 Q149.45 140.083 150.469 140.083 Q156.256 140.083 159.635 143.254 Q163.015 146.426 163.015 151.842 Q163.015 157.421 159.543 160.523 Q156.07 163.602 149.751 163.602 Q147.575 163.602 145.306 163.231 Q143.061 162.861 140.654 162.12 L140.654 157.421 Q142.737 158.555 144.959 159.111 Q147.181 159.666 149.658 159.666 Q153.663 159.666 156.001 157.56 Q158.339 155.453 158.339 151.842 Q158.339 148.231 156.001 146.125 Q153.663 144.018 149.658 144.018 Q147.783 144.018 145.908 144.435 Q144.057 144.852 142.112 145.731 L142.112 128.37 Z" fill="#000000" fill-rule="evenodd" fill-opacity="1" /><path clip-path="url(#clip110)" d="M 0 0 M106.14 71.1324 L113.779 71.1324 L113.779 44.7668 L105.469 46.4334 L105.469 42.1742 L113.733 40.5075 L118.408 40.5075 L118.408 71.1324 L126.047 71.1324 L126.047 75.0675 L106.14 75.0675 L106.14 71.1324 Z" fill="#000000" fill-rule="evenodd" fill-opacity="1" /><path clip-path="url(#clip110)" d="M 0 0 M131.117 69.1879 L136.001 69.1879 L136.001 75.0675 L131.117 75.0675 L131.117 69.1879 Z" fill="#000000" fill-rule="evenodd" fill-opacity="1" /><path clip-path="url(#clip110)" d="M 0 0 M151.07 43.5862 Q147.459 43.5862 145.631 47.151 Q143.825 50.6927 143.825 57.8223 Q143.825 64.9287 145.631 68.4935 Q147.459 72.0352 151.07 72.0352 Q154.705 72.0352 156.51 68.4935 Q158.339 64.9287 158.339 57.8223 Q158.339 50.6927 156.51 47.151 Q154.705 43.5862 151.07 43.5862 M151.07 39.8825 Q156.881 39.8825 159.936 44.489 Q163.015 49.0723 163.015 57.8223 Q163.015 66.5491 159.936 71.1555 Q156.881 75.7388 151.07 75.7388 Q145.26 75.7388 142.182 71.1555 Q139.126 66.5491 139.126 57.8223 Q139.126 49.0723 142.182 44.489 Q145.26 39.8825 151.07 39.8825 Z" fill="#000000" fill-rule="evenodd" fill-opacity="1" /><polyline clip-path="url(#clip112)" style="stroke:#009af9; stroke-width:4; stroke-opacity:1; fill:none" points="
  248.309,233.513 250.352,231.756 252.396,229.999 254.439,228.242 256.482,226.486 258.525,224.73 260.568,222.976 262.611,221.222 264.655,219.47 266.698,217.719 
  268.741,215.97 270.784,214.222 272.827,212.476 274.87,210.733 276.913,208.992 278.957,207.253 281,205.517 283.043,203.783 285.086,202.053 287.129,200.326 
  289.172,198.602 291.215,196.881 293.259,195.164 295.302,193.451 297.345,191.743 299.388,190.038 301.431,188.337 303.474,186.641 305.518,184.95 307.561,183.264 
  309.604,181.582 311.647,179.906 313.69,178.236 315.733,176.57 317.776,174.911 319.82,173.257 321.863,171.609 323.906,169.968 325.949,168.333 327.992,166.704 
  330.035,165.082 332.079,163.467 334.122,161.859 336.165,160.258 338.208,158.665 340.251,157.078 342.294,155.5 344.337,153.929 346.381,152.367 348.424,150.812 
  350.467,149.266 352.51,147.728 354.553,146.198 356.596,144.678 358.64,143.166 360.683,141.663 362.726,140.17 364.769,138.686 366.812,137.211 368.855,135.746 
  370.898,134.291 372.942,132.846 374.985,131.41 377.028,129.985 379.071,128.571 381.114,127.166 383.157,125.773 385.2,124.39 387.244,123.018 389.287,121.657 
  391.33,120.308 393.373,118.969 395.416,117.642 397.459,116.327 399.503,115.023 401.546,113.732 403.589,112.452 405.632,111.184 407.675,109.929 409.718,108.686 
  411.761,107.455 413.805,106.237 415.848,105.032 417.891,103.84 419.934,102.66 421.977,101.494 424.02,100.341 426.064,99.2009 428.107,98.0745 430.15,96.9617 
  432.193,95.8625 434.236,94.7771 436.279,93.7055 438.322,92.6479 440.366,91.6045 442.409,90.5752 444.452,89.5602 446.495,88.5596 448.538,87.5734 450.581,86.6019 
  452.625,85.6451 454.668,84.7031 456.711,83.7759 458.754,82.8637 460.797,81.9666 462.84,81.0846 464.883,80.2179 466.927,79.3665 468.97,78.5305 471.013,77.7101 
  473.056,76.9052 475.099,76.1159 477.142,75.3424 479.185,74.5847 481.229,73.843 483.272,73.1171 485.315,72.4073 487.358,71.7137 489.401,71.0362 491.444,70.3749 
  493.488,69.73 495.531,69.1014 497.574,68.4893 499.617,67.8937 501.66,67.3147 503.703,66.7522 505.746,66.2065 507.79,65.6775 509.833,65.1652 511.876,64.6698 
  513.919,64.1913 515.962,63.7297 518.005,63.2851 520.049,62.8575 522.092,62.447 524.135,62.0536 526.178,61.6773 528.221,61.3182 530.264,60.9763 532.307,60.6517 
  534.351,60.3444 536.394,60.0544 538.437,59.7817 540.48,59.5264 542.523,59.2885 544.566,59.0681 546.609,58.865 548.653,58.6795 550.696,58.5114 552.739,58.3608 
  554.782,58.2277 556.825,58.1122 558.868,58.0142 560.912,57.9338 562.955,57.8709 564.998,57.8255 567.041,57.7978 569.084,57.7876 571.127,57.795 573.17,57.8199 
  575.214,57.8625 577.257,57.9226 579.3,58.0002 581.343,58.0954 583.386,58.2082 585.429,58.3384 587.473,58.4862 589.516,58.6515 591.559,58.8343 593.602,59.0346 
  595.645,59.2522 597.688,59.4874 599.731,59.7399 601.775,60.0098 603.818,60.297 605.861,60.6016 607.904,60.9235 609.947,61.2626 611.99,61.619 614.034,61.9925 
  616.077,62.3832 618.12,62.791 620.163,63.2159 622.206,63.6578 624.249,64.1166 626.292,64.5925 628.336,65.0852 630.379,65.5948 632.422,66.1211 634.465,66.6642 
  636.508,67.224 638.551,67.8004 640.594,68.3934 642.638,69.0029 644.681,69.6288 646.724,70.2711 648.767,70.9298 650.81,71.6047 652.853,72.2958 654.897,73.003 
  656.94,73.7263 658.983,74.4655 661.026,75.2207 663.069,75.9917 665.112,76.7784 667.155,77.5808 669.199,78.3988 671.242,79.2323 673.285,80.0813 675.328,80.9456 
  677.371,81.8251 679.414,82.7198 681.458,83.6296 683.501,84.5544 685.544,85.4941 687.587,86.4486 689.63,87.4177 691.673,88.4015 693.716,89.3998 695.76,90.4126 
  697.803,91.4396 699.846,92.4808 701.889,93.5361 703.932,94.6055 705.975,95.6887 708.019,96.7857 710.062,97.8964 712.105,99.0206 714.148,100.158 716.191,101.309 
  718.234,102.474 720.277,103.651 722.321,104.841 724.364,106.044 726.407,107.26 728.45,108.489 730.493,109.73 732.536,110.984 734.579,112.249 736.623,113.527 
  738.666,114.817 740.709,116.119 742.752,117.432 744.795,118.757 746.838,120.094 748.882,121.441 750.925,122.801 752.968,124.171 755.011,125.552 757.054,126.944 
  759.097,128.346 761.14,129.759 763.184,131.183 765.227,132.616 767.27,134.06 769.313,135.514 771.356,136.977 773.399,138.45 775.443,139.933 777.486,141.425 
  779.529,142.926 781.572,144.436 783.615,145.956 785.658,147.484 787.701,149.02 789.745,150.565 791.788,152.118 793.831,153.68 795.874,155.249 797.917,156.827 
  799.96,158.411 802.004,160.004 804.047,161.604 806.09,163.211 808.133,164.825 810.176,166.445 812.219,168.073 814.262,169.707 816.306,171.348 818.349,172.994 
  820.392,174.647 822.435,176.306 824.478,177.97 826.521,179.64 828.564,181.315 830.608,182.996 832.651,184.681 834.694,186.372 836.737,188.067 838.78,189.767 
  840.823,191.471 842.867,193.179 844.91,194.891 846.953,196.608 848.996,198.327 851.039,200.051 853.082,201.778 855.125,203.507 857.169,205.24 859.212,206.976 
  861.255,208.715 863.298,210.455 865.341,212.199 867.384,213.944 869.428,215.691 871.471,217.44 873.514,219.191 875.557,220.943 877.6,222.696 879.643,224.451 
  881.686,226.206 883.73,227.962 885.773,229.719 887.816,231.476 889.859,233.233 891.902,234.99 893.945,236.747 895.988,238.504 898.032,240.26 900.075,242.016 
  902.118,243.771 904.161,245.524 906.204,247.277 908.247,249.028 910.291,250.778 912.334,252.525 914.377,254.271 916.42,256.015 918.463,257.757 920.506,259.496 
  922.549,261.233 924.593,262.967 926.636,264.698 928.679,266.425 930.722,268.15 932.765,269.871 934.808,271.588 936.852,273.302 938.895,275.011 940.938,276.717 
  942.981,278.418 945.024,280.115 947.067,281.807 949.11,283.494 951.154,285.176 953.197,286.853 955.24,288.524 957.283,290.191 959.326,291.851 961.369,293.506 
  963.413,295.154 965.456,296.797 967.499,298.433 969.542,300.063 971.585,301.686 973.628,303.302 975.671,304.911 977.715,306.513 979.758,308.108 981.801,309.695 
  983.844,311.275 985.887,312.847 987.93,314.411 989.973,315.967 992.017,317.514 994.06,319.054 996.103,320.584 998.146,322.106 1000.19,323.619 1002.23,325.124 
  1004.28,326.619 1006.32,328.104 1008.36,329.58 1010.41,331.047 1012.45,332.504 1014.49,333.951 1016.53,335.388 1018.58,336.814 1020.62,338.231 1022.66,339.637 
  1024.71,341.032 1026.75,342.416 1028.79,343.79 1030.84,345.153 1032.88,346.504 1034.92,347.844 1036.97,349.173 1039.01,350.49 1041.05,351.796 1043.1,353.089 
  1045.14,354.371 1047.18,355.64 1049.22,356.898 1051.27,358.143 1053.31,359.375 1055.35,360.595 1057.4,361.803 1059.44,362.997 1061.48,364.179 1063.53,365.347 
  1065.57,366.502 1067.61,367.644 1069.66,368.773 1071.7,369.888 1073.74,370.989 1075.79,372.077 1077.83,373.151 1079.87,374.21 1081.92,375.256 1083.96,376.288 
  1086,377.305 1088.04,378.308 1090.09,379.296 1092.13,380.27 1094.17,381.229 1096.22,382.174 1098.26,383.103 1100.3,384.018 1102.35,384.917 1104.39,385.802 
  1106.43,386.671 1108.48,387.525 1110.52,388.363 1112.56,389.186 1114.61,389.993 1116.65,390.785 1118.69,391.561 1120.74,392.321 1122.78,393.066 1124.82,393.794 
  1126.86,394.506 1128.91,395.203 1130.95,395.883 1132.99,396.547 1135.04,397.194 1137.08,397.825 1139.12,398.44 1141.17,399.038 1143.21,399.62 1145.25,400.185 
  1147.3,400.733 1149.34,401.265 1151.38,401.78 1153.43,402.278 1155.47,402.759 1157.51,403.224 1159.56,403.671 1161.6,404.101 1163.64,404.515 1165.68,404.911 
  1167.73,405.29 1169.77,405.652 1171.81,405.996 1173.86,406.323 1175.9,406.634 1177.94,406.926 1179.99,407.202 1182.03,407.46 1184.07,407.7 1186.12,407.924 
  1188.16,408.13 1190.2,408.318 1192.25,408.489 1194.29,408.642 1196.33,408.778 1198.38,408.896 1200.42,408.997 1202.46,409.08 1204.5,409.146 1206.55,409.194 
  1208.59,409.225 1210.63,409.238 1212.68,409.233 1214.72,409.211 1216.76,409.171 1218.81,409.114 1220.85,409.039 1222.89,408.947 1224.94,408.837 1226.98,408.709 
  1229.02,408.564 1231.07,408.402 1233.11,408.222 1235.15,408.024 1237.19,407.809 1239.24,407.577 1241.28,407.327 1243.32,407.06 1245.37,406.776 1247.41,406.474 
  1249.45,406.155 1251.5,405.818 1253.54,405.465 1255.58,405.094 1257.63,404.706 1259.67,404.301 1261.71,403.879 1263.76,403.44 1265.8,402.983 1267.84,402.51 
  1269.89,402.02 1271.93,401.513 1273.97,400.99 1276.01,400.449 1278.06,399.892 1280.1,399.318 1282.14,398.728 1284.19,398.121 1286.23,397.498 1288.27,396.858 
  1290.32,396.202 1292.36,395.53 1294.4,394.841 1296.45,394.136 1298.49,393.416 1300.53,392.679 1302.58,391.926 1304.62,391.158 1306.66,390.374 1308.71,389.574 
  1310.75,388.758 1312.79,387.927 1314.83,387.081 1316.88,386.219 1318.92,385.342 1320.96,384.449 1323.01,383.542 1325.05,382.62 1327.09,381.682 1329.14,380.73 
  1331.18,379.763 1333.22,378.782 1335.27,377.786 1337.31,376.775 1339.35,375.751 1341.4,374.712 1343.44,373.659 1345.48,372.592 1347.53,371.51 1349.57,370.416 
  1351.61,369.307 1353.65,368.185 1355.7,367.05 1357.74,365.901 1359.78,364.738 1361.83,363.563 1363.87,362.375 1365.91,361.174 1367.96,359.96 1370,358.733 
  1372.04,357.494 1374.09,356.243 1376.13,354.979 1378.17,353.703 1380.22,352.415 1382.26,351.115 1384.3,349.804 1386.34,348.48 1388.39,347.146 1390.43,345.8 
  1392.47,344.442 1394.52,343.074 1396.56,341.695 1398.6,340.305 1400.65,338.904 1402.69,337.492 1404.73,336.071 1406.78,334.638 1408.82,333.196 1410.86,331.744 
  1412.91,330.282 1414.95,328.811 1416.99,327.33 1419.04,325.839 1421.08,324.339 1423.12,322.83 1425.16,321.313 1427.21,319.786 1429.25,318.251 1431.29,316.707 
  1433.34,315.155 1435.38,313.595 1437.42,312.027 1439.47,310.451 1441.51,308.867 1443.55,307.276 1445.6,305.677 1447.64,304.072 1449.68,302.459 1451.73,300.839 
  1453.77,299.212 1455.81,297.579 1457.86,295.94 1459.9,294.294 1461.94,292.642 1463.98,290.985 1466.03,289.321 1468.07,287.652 1470.11,285.978 1472.16,284.298 
  1474.2,282.613 1476.24,280.924 1478.29,279.229 1480.33,277.53 1482.37,275.827 1484.42,274.119 1486.46,272.407 1488.5,270.692 1490.55,268.973 1492.59,267.25 
  1494.63,265.523 1496.68,263.794 1498.72,262.062 1500.76,260.326 1502.8,258.588 1504.85,256.848 1506.89,255.105 1508.93,253.36 1510.98,251.613 1513.02,249.864 
  1515.06,248.114 1517.11,246.362 1519.15,244.609 1521.19,242.854 1523.24,241.099 1525.28,239.343 1527.32,237.587 1529.37,235.83 1531.41,234.073 1533.45,232.315 
  1535.5,230.558 1537.54,228.801 1539.58,227.045 1541.62,225.289 1543.67,223.534 1545.71,221.781 1547.75,220.028 1549.8,218.276 1551.84,216.527 1553.88,214.778 
  1555.93,213.032 1557.97,211.288 1560.01,209.546 1562.06,207.806 1564.1,206.069 1566.14,204.335 1568.19,202.604 1570.23,200.875 1572.27,199.15 1574.31,197.429 
  1576.36,195.711 1578.4,193.997 1580.44,192.286 1582.49,190.58 1584.53,188.878 1586.57,187.181 1588.62,185.488 1590.66,183.8 1592.7,182.117 1594.75,180.44 
  1596.79,178.767 1598.83,177.1 1600.88,175.439 1602.92,173.783 1604.96,172.134 1607.01,170.49 1609.05,168.853 1611.09,167.222 1613.13,165.598 1615.18,163.981 
  1617.22,162.37 1619.26,160.767 1621.31,159.171 1623.35,157.583 1625.39,156.002 1627.44,154.429 1629.48,152.863 1631.52,151.306 1633.57,149.757 1635.61,148.217 
  1637.65,146.685 1639.7,145.161 1641.74,143.647 1643.78,142.141 1645.83,140.645 1647.87,139.158 1649.91,137.68 1651.95,136.212 1654,134.753 1656.04,133.305 
  1658.08,131.866 1660.13,130.438 1662.17,129.02 1664.21,127.612 1666.26,126.215 1668.3,124.829 1670.34,123.454 1672.39,122.089 1674.43,120.736 1676.47,119.394 
  1678.52,118.064 1680.56,116.745 1682.6,115.437 1684.65,114.142 1686.69,112.858 1688.73,111.587 1690.77,110.327 1692.82,109.08 1694.86,107.846 1696.9,106.624 
  1698.95,105.415 1700.99,104.218 1703.03,103.034 1705.08,101.864 1707.12,100.707 1709.16,99.5625 1711.21,98.4319 1713.25,97.3147 1715.29,96.2111 1717.34,95.1213 
  1719.38,94.0453 1721.42,92.9833 1723.47,91.9353 1725.51,90.9015 1727.55,89.8819 1729.59,88.8767 1731.64,87.886 1733.68,86.9098 1735.72,85.9483 1737.77,85.0015 
  1739.81,84.0696 1741.85,83.1527 1743.9,82.2507 1745.94,81.3639 1747.98,80.4923 1750.03,79.636 1752.07,78.7952 1754.11,77.9697 1756.16,77.1599 1758.2,76.3656 
  1760.24,75.5871 1762.28,74.8244 1764.33,74.0775 1766.37,73.3466 1768.41,72.6317 1770.46,71.9329 1772.5,71.2502 1774.54,70.5838 1776.59,69.9337 1778.63,69.2999 
  1780.67,68.6825 1782.72,68.0816 1784.76,67.4973 1786.8,66.9296 1788.85,66.3785 1790.89,65.8442 1792.93,65.3266 1794.98,64.8258 1797.02,64.3419 1799.06,63.8749 
  1801.1,63.4249 1803.15,62.9919 1805.19,62.5759 1807.23,62.177 1809.28,61.7953 1811.32,61.4307 1813.36,61.0834 1815.41,60.7532 1817.45,60.4404 1819.49,60.1449 
  1821.54,59.8667 1823.58,59.6059 1825.62,59.3624 1827.67,59.1364 1829.71,58.9278 1831.75,58.7367 1833.8,58.563 1835.84,58.4069 1837.88,58.2682 1839.92,58.1471 
  1841.97,58.0435 1844.01,57.9575 1846.05,57.889 1848.1,57.8381 1850.14,57.8047 1852.18,57.7889 1854.23,57.7907 1856.27,57.8101 1858.31,57.847 1860.36,57.9015 
  1862.4,57.9736 1864.44,58.0632 1866.49,58.1703 1868.53,58.295 1870.57,58.4373 1872.62,58.597 1874.66,58.7742 1876.7,58.9689 1878.74,59.181 1880.79,59.4106 
  1882.83,59.6576 1884.87,59.9219 1886.92,60.2037 1888.96,60.5027 1891,60.8191 1893.05,61.1527 1895.09,61.5036 1897.13,61.8716 1899.18,62.2569 1901.22,62.6592 
  1903.26,63.0787 1905.31,63.5151 1907.35,63.9686 1909.39,64.4391 1911.44,64.9264 1913.48,65.4306 1915.52,65.9516 1917.56,66.4894 1919.61,67.0439 1921.65,67.615 
  1923.69,68.2027 1925.74,68.8069 1927.78,69.4276 1929.82,70.0647 1931.87,70.7182 1933.91,71.3879 1935.95,72.0739 1938,72.776 1940.04,73.4942 1942.08,74.2283 
  1944.13,74.9784 1946.17,75.7444 1948.21,76.5261 1950.25,77.3235 1952.3,78.1366 1954.34,78.9652 1956.38,79.8092 1958.43,80.6686 1960.47,81.5433 1962.51,82.4332 
  1964.56,83.3382 1966.6,84.2582 1968.64,85.1932 1970.69,86.1429 1972.73,87.1074 1974.77,88.0866 1976.82,89.0803 1978.86,90.0884 1980.9,91.1109 1982.95,92.1476 
  1984.99,93.1985 1987.03,94.2633 1989.07,95.3422 1991.12,96.4348 1993.16,97.5411 1995.2,98.6611 1997.25,99.7945 1999.29,100.941 2001.33,102.101 2003.38,103.274 
  2005.42,104.461 2007.46,105.66 2009.51,106.872 2011.55,108.096 2013.59,109.333 2015.64,110.583 2017.68,111.845 2019.72,113.119 2021.77,114.405 2023.81,115.703 
  2025.85,117.012 2027.89,118.334 2029.94,119.667 2031.98,121.011 2034.02,122.366 2036.07,123.733 2038.11,125.111 2040.15,126.499 2042.2,127.898 2044.24,129.308 
  2046.28,130.728 2048.33,132.159 2050.37,133.599 2052.41,135.05 2054.46,136.51 2056.5,137.98 2058.54,139.46 2060.59,140.949 2062.63,142.447 2064.67,143.954 
  2066.71,145.471 2068.76,146.996 2070.8,148.53 2072.84,150.072 2074.89,151.623 2076.93,153.182 2078.97,154.749 2081.02,156.323 2083.06,157.906 2085.1,159.496 
  2087.15,161.093 2089.19,162.698 2091.23,164.31 2093.28,165.928 2095.32,167.554 2097.36,169.186 2099.41,170.824 2101.45,172.469 2103.49,174.12 2105.53,175.777 
  2107.58,177.439 2109.62,179.107 2111.66,180.781 2113.71,182.46 2115.75,184.144 2117.79,185.833 2119.84,187.526 2121.88,189.225 2123.92,190.927 2125.97,192.634 
  2128.01,194.345 2130.05,196.06 2132.1,197.779 2134.14,199.501 2136.18,201.227 2138.22,202.956 2140.27,204.688 2142.31,206.423 2144.35,208.161 2146.4,209.901 
  2148.44,211.643 2150.48,213.388 2152.53,215.134 2154.57,216.883 2156.61,218.633 2158.66,220.385 2160.7,222.138 2162.74,223.892 2164.79,225.647 2166.83,227.403 
  2168.87,229.159 2170.92,230.916 2172.96,232.673 2175,234.431 2177.04,236.188 2179.09,237.945 2181.13,239.701 2183.17,241.457 2185.22,243.212 2187.26,244.966 
  2189.3,246.719 2191.35,248.47 2193.39,250.221 2195.43,251.969 2197.48,253.716 2199.52,255.46 2201.56,257.202 2203.61,258.942 2205.65,260.68 2207.69,262.415 
  2209.74,264.147 2211.78,265.875 2213.82,267.601 2215.86,269.323 2217.91,271.042 2219.95,272.756 2221.99,274.467 2224.04,276.174 2226.08,277.877 2228.12,279.575 
  2230.17,281.268 2232.21,282.957 2234.25,284.641 2236.3,286.319 2238.34,287.993 2240.38,289.66 2242.43,291.323 2244.47,292.979 2246.51,294.63 2248.56,296.274 
  2250.6,297.913 2252.64,299.544 2254.68,301.169 2256.73,302.788 2258.77,304.399 2260.81,306.004 2262.86,307.601 2264.9,309.19 2266.94,310.773 2268.99,312.347 
  2271.03,313.914 2273.07,315.472 2275.12,317.022 2277.16,318.564 2279.2,320.098 2281.25,321.622 2283.29,323.138 2285.33,324.645 2287.38,326.143 2289.42,327.632 
  2291.46,329.111 
  "/>
<path clip-path="url(#clip110)" d="
M1985.37 180.622 L2280.56 180.622 L2280.56 59.662 L1985.37 59.662  Z
  " fill="#ffffff" fill-rule="evenodd" fill-opacity="1"/>
<polyline clip-path="url(#clip110)" style="stroke:#000000; stroke-width:4; stroke-opacity:1; fill:none" points="
  1985.37,180.622 2280.56,180.622 2280.56,59.662 1985.37,59.662 1985.37,180.622 
  "/>
<polyline clip-path="url(#clip110)" style="stroke:#009af9; stroke-width:4; stroke-opacity:1; fill:none" points="
  2009.43,120.142 2153.81,120.142 
  "/>
<path clip-path="url(#clip110)" d="M 0 0 M2196.3 112.26 L2196.3 116.288 Q2194.5 115.362 2192.55 114.899 Q2190.61 114.436 2188.53 114.436 Q2185.35 114.436 2183.76 115.408 Q2182.18 116.38 2182.18 118.325 Q2182.18 119.806 2183.32 120.663 Q2184.45 121.496 2187.88 122.26 L2189.34 122.584 Q2193.87 123.556 2195.77 125.339 Q2197.69 127.098 2197.69 130.269 Q2197.69 133.88 2194.82 135.987 Q2191.97 138.093 2186.97 138.093 Q2184.89 138.093 2182.62 137.677 Q2180.38 137.283 2177.88 136.473 L2177.88 132.075 Q2180.24 133.302 2182.53 133.927 Q2184.82 134.528 2187.07 134.528 Q2190.08 134.528 2191.7 133.51 Q2193.32 132.468 2193.32 130.593 Q2193.32 128.857 2192.14 127.931 Q2190.98 127.005 2187.02 126.149 L2185.54 125.802 Q2181.58 124.968 2179.82 123.255 Q2178.06 121.519 2178.06 118.51 Q2178.06 114.853 2180.65 112.862 Q2183.25 110.871 2188.02 110.871 Q2190.38 110.871 2192.46 111.218 Q2194.54 111.566 2196.3 112.26 Z" fill="#000000" fill-rule="evenodd" fill-opacity="1" /><path clip-path="url(#clip110)" d="M 0 0 M2202.16 111.496 L2206.42 111.496 L2206.42 137.422 L2202.16 137.422 L2202.16 111.496 M2202.16 101.404 L2206.42 101.404 L2206.42 106.797 L2202.16 106.797 L2202.16 101.404 Z" fill="#000000" fill-rule="evenodd" fill-opacity="1" /><path clip-path="url(#clip110)" d="M 0 0 M2232.44 121.774 L2232.44 137.422 L2228.18 137.422 L2228.18 121.913 Q2228.18 118.232 2226.74 116.404 Q2225.31 114.575 2222.44 114.575 Q2218.99 114.575 2217 116.774 Q2215.01 118.973 2215.01 122.769 L2215.01 137.422 L2210.72 137.422 L2210.72 111.496 L2215.01 111.496 L2215.01 115.524 Q2216.53 113.186 2218.59 112.029 Q2220.68 110.871 2223.39 110.871 Q2227.85 110.871 2230.15 113.649 Q2232.44 116.404 2232.44 121.774 Z" fill="#000000" fill-rule="evenodd" fill-opacity="1" /><path clip-path="url(#clip110)" d="
M187.015 953.115 L2352.76 953.115 L2352.76 580.577 L187.015 580.577  Z
  " fill="#ffffff" fill-rule="evenodd" fill-opacity="1"/>
<defs>
  <clipPath id="clip113">
    <rect x="187" y="580" width="2167" height="374"/>
  </clipPath>
</defs>
<polyline clip-path="url(#clip113)" style="stroke:#000000; stroke-width:2; stroke-opacity:0.1; fill:none" points="
  248.309,953.115 248.309,580.577 
  "/>
<polyline clip-path="url(#clip113)" style="stroke:#000000; stroke-width:2; stroke-opacity:0.1; fill:none" points="
  759.097,953.115 759.097,580.577 
  "/>
<polyline clip-path="url(#clip113)" style="stroke:#000000; stroke-width:2; stroke-opacity:0.1; fill:none" points="
  1269.89,953.115 1269.89,580.577 
  "/>
<polyline clip-path="url(#clip113)" style="stroke:#000000; stroke-width:2; stroke-opacity:0.1; fill:none" points="
  1780.67,953.115 1780.67,580.577 
  "/>
<polyline clip-path="url(#clip113)" style="stroke:#000000; stroke-width:2; stroke-opacity:0.1; fill:none" points="
  2291.46,953.115 2291.46,580.577 
  "/>
<polyline clip-path="url(#clip113)" style="stroke:#000000; stroke-width:2; stroke-opacity:0.1; fill:none" points="
  187.015,942.571 2352.76,942.571 
  "/>
<polyline clip-path="url(#clip113)" style="stroke:#000000; stroke-width:2; stroke-opacity:0.1; fill:none" points="
  187.015,854.709 2352.76,854.709 
  "/>
<polyline clip-path="url(#clip113)" style="stroke:#000000; stroke-width:2; stroke-opacity:0.1; fill:none" points="
  187.015,766.846 2352.76,766.846 
  "/>
<polyline clip-path="url(#clip113)" style="stroke:#000000; stroke-width:2; stroke-opacity:0.1; fill:none" points="
  187.015,678.984 2352.76,678.984 
  "/>
<polyline clip-path="url(#clip113)" style="stroke:#000000; stroke-width:2; stroke-opacity:0.1; fill:none" points="
  187.015,591.121 2352.76,591.121 
  "/>
<polyline clip-path="url(#clip110)" style="stroke:#000000; stroke-width:4; stroke-opacity:1; fill:none" points="
  187.015,953.115 187.015,580.577 
  "/>
<polyline clip-path="url(#clip110)" style="stroke:#000000; stroke-width:4; stroke-opacity:1; fill:none" points="
  187.015,942.571 213.004,942.571 
  "/>
<polyline clip-path="url(#clip110)" style="stroke:#000000; stroke-width:4; stroke-opacity:1; fill:none" points="
  187.015,854.709 213.004,854.709 
  "/>
<polyline clip-path="url(#clip110)" style="stroke:#000000; stroke-width:4; stroke-opacity:1; fill:none" points="
  187.015,766.846 213.004,766.846 
  "/>
<polyline clip-path="url(#clip110)" style="stroke:#000000; stroke-width:4; stroke-opacity:1; fill:none" points="
  187.015,678.984 213.004,678.984 
  "/>
<polyline clip-path="url(#clip110)" style="stroke:#000000; stroke-width:4; stroke-opacity:1; fill:none" points="
  187.015,591.121 213.004,591.121 
  "/>
<path clip-path="url(#clip110)" d="M 0 0 M87.7837 944.967 L100.26 944.967 L100.26 948.763 L87.7837 948.763 L87.7837 944.967 Z" fill="#000000" fill-rule="evenodd" fill-opacity="1" /><path clip-path="url(#clip110)" d="M 0 0 M106.14 955.916 L113.779 955.916 L113.779 929.55 L105.469 931.217 L105.469 926.958 L113.733 925.291 L118.408 925.291 L118.408 955.916 L126.047 955.916 L126.047 959.851 L106.14 959.851 L106.14 955.916 Z" fill="#000000" fill-rule="evenodd" fill-opacity="1" /><path clip-path="url(#clip110)" d="M 0 0 M131.117 953.972 L136.001 953.972 L136.001 959.851 L131.117 959.851 L131.117 953.972 Z" fill="#000000" fill-rule="evenodd" fill-opacity="1" /><path clip-path="url(#clip110)" d="M 0 0 M151.07 928.37 Q147.459 928.37 145.631 931.935 Q143.825 935.476 143.825 942.606 Q143.825 949.712 145.631 953.277 Q147.459 956.819 151.07 956.819 Q154.705 956.819 156.51 953.277 Q158.339 949.712 158.339 942.606 Q158.339 935.476 156.51 931.935 Q154.705 928.37 151.07 928.37 M151.07 924.666 Q156.881 924.666 159.936 929.273 Q163.015 933.856 163.015 942.606 Q163.015 951.333 159.936 955.939 Q156.881 960.523 151.07 960.523 Q145.26 960.523 142.182 955.939 Q139.126 951.333 139.126 942.606 Q139.126 933.856 142.182 929.273 Q145.26 924.666 151.07 924.666 Z" fill="#000000" fill-rule="evenodd" fill-opacity="1" /><path clip-path="url(#clip110)" d="M 0 0 M87.5522 857.104 L100.029 857.104 L100.029 860.901 L87.5522 860.901 L87.5522 857.104 Z" fill="#000000" fill-rule="evenodd" fill-opacity="1" /><path clip-path="url(#clip110)" d="M 0 0 M115.098 840.507 Q111.487 840.507 109.659 844.072 Q107.853 847.614 107.853 854.743 Q107.853 861.85 109.659 865.415 Q111.487 868.956 115.098 868.956 Q118.733 868.956 120.538 865.415 Q122.367 861.85 122.367 854.743 Q122.367 847.614 120.538 844.072 Q118.733 840.507 115.098 840.507 M115.098 836.804 Q120.908 836.804 123.964 841.41 Q127.043 845.993 127.043 854.743 Q127.043 863.47 123.964 868.077 Q120.908 872.66 115.098 872.66 Q109.288 872.66 106.209 868.077 Q103.154 863.47 103.154 854.743 Q103.154 845.993 106.209 841.41 Q109.288 836.804 115.098 836.804 Z" fill="#000000" fill-rule="evenodd" fill-opacity="1" /><path clip-path="url(#clip110)" d="M 0 0 M132.112 866.109 L136.996 866.109 L136.996 871.989 L132.112 871.989 L132.112 866.109 Z" fill="#000000" fill-rule="evenodd" fill-opacity="1" /><path clip-path="url(#clip110)" d="M 0 0 M142.112 837.429 L160.468 837.429 L160.468 841.364 L146.394 841.364 L146.394 849.836 Q147.413 849.489 148.431 849.327 Q149.45 849.142 150.469 849.142 Q156.256 849.142 159.635 852.313 Q163.015 855.484 163.015 860.901 Q163.015 866.479 159.543 869.581 Q156.07 872.66 149.751 872.66 Q147.575 872.66 145.306 872.29 Q143.061 871.919 140.654 871.178 L140.654 866.479 Q142.737 867.614 144.959 868.169 Q147.181 868.725 149.658 868.725 Q153.663 868.725 156.001 866.618 Q158.339 864.512 158.339 860.901 Q158.339 857.29 156.001 855.183 Q153.663 853.077 149.658 853.077 Q147.783 853.077 145.908 853.493 Q144.057 853.91 142.112 854.79 L142.112 837.429 Z" fill="#000000" fill-rule="evenodd" fill-opacity="1" /><path clip-path="url(#clip110)" d="M 0 0 M114.103 752.645 Q110.492 752.645 108.663 756.21 Q106.858 759.751 106.858 766.881 Q106.858 773.987 108.663 777.552 Q110.492 781.094 114.103 781.094 Q117.737 781.094 119.543 777.552 Q121.371 773.987 121.371 766.881 Q121.371 759.751 119.543 756.21 Q117.737 752.645 114.103 752.645 M114.103 748.941 Q119.913 748.941 122.969 753.548 Q126.047 758.131 126.047 766.881 Q126.047 775.608 122.969 780.214 Q119.913 784.797 114.103 784.797 Q108.293 784.797 105.214 780.214 Q102.159 775.608 102.159 766.881 Q102.159 758.131 105.214 753.548 Q108.293 748.941 114.103 748.941 Z" fill="#000000" fill-rule="evenodd" fill-opacity="1" /><path clip-path="url(#clip110)" d="M 0 0 M131.117 778.246 L136.001 778.246 L136.001 784.126 L131.117 784.126 L131.117 778.246 Z" fill="#000000" fill-rule="evenodd" fill-opacity="1" /><path clip-path="url(#clip110)" d="M 0 0 M151.07 752.645 Q147.459 752.645 145.631 756.21 Q143.825 759.751 143.825 766.881 Q143.825 773.987 145.631 777.552 Q147.459 781.094 151.07 781.094 Q154.705 781.094 156.51 777.552 Q158.339 773.987 158.339 766.881 Q158.339 759.751 156.51 756.21 Q154.705 752.645 151.07 752.645 M151.07 748.941 Q156.881 748.941 159.936 753.548 Q163.015 758.131 163.015 766.881 Q163.015 775.608 159.936 780.214 Q156.881 784.797 151.07 784.797 Q145.26 784.797 142.182 780.214 Q139.126 775.608 139.126 766.881 Q139.126 758.131 142.182 753.548 Q145.26 748.941 151.07 748.941 Z" fill="#000000" fill-rule="evenodd" fill-opacity="1" /><path clip-path="url(#clip110)" d="M 0 0 M115.098 664.782 Q111.487 664.782 109.659 668.347 Q107.853 671.889 107.853 679.018 Q107.853 686.125 109.659 689.689 Q111.487 693.231 115.098 693.231 Q118.733 693.231 120.538 689.689 Q122.367 686.125 122.367 679.018 Q122.367 671.889 120.538 668.347 Q118.733 664.782 115.098 664.782 M115.098 661.079 Q120.908 661.079 123.964 665.685 Q127.043 670.268 127.043 679.018 Q127.043 687.745 123.964 692.351 Q120.908 696.935 115.098 696.935 Q109.288 696.935 106.209 692.351 Q103.154 687.745 103.154 679.018 Q103.154 670.268 106.209 665.685 Q109.288 661.079 115.098 661.079 Z" fill="#000000" fill-rule="evenodd" fill-opacity="1" /><path clip-path="url(#clip110)" d="M 0 0 M132.112 690.384 L136.996 690.384 L136.996 696.264 L132.112 696.264 L132.112 690.384 Z" fill="#000000" fill-rule="evenodd" fill-opacity="1" /><path clip-path="url(#clip110)" d="M 0 0 M142.112 661.704 L160.468 661.704 L160.468 665.639 L146.394 665.639 L146.394 674.111 Q147.413 673.764 148.431 673.602 Q149.45 673.416 150.469 673.416 Q156.256 673.416 159.635 676.588 Q163.015 679.759 163.015 685.176 Q163.015 690.754 159.543 693.856 Q156.07 696.935 149.751 696.935 Q147.575 696.935 145.306 696.564 Q143.061 696.194 140.654 695.453 L140.654 690.754 Q142.737 691.889 144.959 692.444 Q147.181 693 149.658 693 Q153.663 693 156.001 690.893 Q158.339 688.787 158.339 685.176 Q158.339 681.565 156.001 679.458 Q153.663 677.352 149.658 677.352 Q147.783 677.352 145.908 677.768 Q144.057 678.185 142.112 679.065 L142.112 661.704 Z" fill="#000000" fill-rule="evenodd" fill-opacity="1" /><path clip-path="url(#clip110)" d="M 0 0 M106.14 604.466 L113.779 604.466 L113.779 578.1 L105.469 579.767 L105.469 575.508 L113.733 573.841 L118.408 573.841 L118.408 604.466 L126.047 604.466 L126.047 608.401 L106.14 608.401 L106.14 604.466 Z" fill="#000000" fill-rule="evenodd" fill-opacity="1" /><path clip-path="url(#clip110)" d="M 0 0 M131.117 602.521 L136.001 602.521 L136.001 608.401 L131.117 608.401 L131.117 602.521 Z" fill="#000000" fill-rule="evenodd" fill-opacity="1" /><path clip-path="url(#clip110)" d="M 0 0 M151.07 576.92 Q147.459 576.92 145.631 580.484 Q143.825 584.026 143.825 591.156 Q143.825 598.262 145.631 601.827 Q147.459 605.369 151.07 605.369 Q154.705 605.369 156.51 601.827 Q158.339 598.262 158.339 591.156 Q158.339 584.026 156.51 580.484 Q154.705 576.92 151.07 576.92 M151.07 573.216 Q156.881 573.216 159.936 577.822 Q163.015 582.406 163.015 591.156 Q163.015 599.882 159.936 604.489 Q156.881 609.072 151.07 609.072 Q145.26 609.072 142.182 604.489 Q139.126 599.882 139.126 591.156 Q139.126 582.406 142.182 577.822 Q145.26 573.216 151.07 573.216 Z" fill="#000000" fill-rule="evenodd" fill-opacity="1" /><polyline clip-path="url(#clip113)" style="stroke:#009af9; stroke-width:4; stroke-opacity:1; fill:none" points="
  248.309,591.121 250.352,591.13 252.396,591.156 254.439,591.2 256.482,591.261 258.525,591.341 260.568,591.437 262.611,591.551 264.655,591.683 266.698,591.832 
  268.741,591.999 270.784,592.183 272.827,592.385 274.87,592.604 276.913,592.84 278.957,593.094 281,593.365 283.043,593.654 285.086,593.96 287.129,594.283 
  289.172,594.624 291.215,594.981 293.259,595.356 295.302,595.748 297.345,596.158 299.388,596.584 301.431,597.027 303.474,597.487 305.518,597.964 307.561,598.459 
  309.604,598.969 311.647,599.497 313.69,600.042 315.733,600.603 317.776,601.18 319.82,601.775 321.863,602.385 323.906,603.013 325.949,603.656 327.992,604.316 
  330.035,604.993 332.079,605.685 334.122,606.393 336.165,607.118 338.208,607.858 340.251,608.615 342.294,609.387 344.337,610.175 346.381,610.979 348.424,611.798 
  350.467,612.633 352.51,613.483 354.553,614.348 356.596,615.229 358.64,616.125 360.683,617.036 362.726,617.962 364.769,618.903 366.812,619.859 368.855,620.829 
  370.898,621.814 372.942,622.813 374.985,623.827 377.028,624.855 379.071,625.898 381.114,626.954 383.157,628.025 385.2,629.109 387.244,630.207 389.287,631.319 
  391.33,632.444 393.373,633.583 395.416,634.735 397.459,635.9 399.503,637.079 401.546,638.27 403.589,639.474 405.632,640.691 407.675,641.921 409.718,643.163 
  411.761,644.417 413.805,645.684 415.848,646.963 417.891,648.253 419.934,649.556 421.977,650.87 424.02,652.196 426.064,653.534 428.107,654.883 430.15,656.243 
  432.193,657.614 434.236,658.996 436.279,660.388 438.322,661.792 440.366,663.205 442.409,664.63 444.452,666.064 446.495,667.509 448.538,668.963 450.581,670.427 
  452.625,671.901 454.668,673.385 456.711,674.878 458.754,676.379 460.797,677.89 462.84,679.41 464.883,680.939 466.927,682.476 468.97,684.022 471.013,685.576 
  473.056,687.138 475.099,688.708 477.142,690.286 479.185,691.871 481.229,693.464 483.272,695.065 485.315,696.672 487.358,698.287 489.401,699.908 491.444,701.536 
  493.488,703.171 495.531,704.812 497.574,706.459 499.617,708.112 501.66,709.771 503.703,711.436 505.746,713.106 507.79,714.782 509.833,716.463 511.876,718.149 
  513.919,719.84 515.962,721.535 518.005,723.235 520.049,724.94 522.092,726.648 524.135,728.361 526.178,730.078 528.221,731.798 530.264,733.521 532.307,735.248 
  534.351,736.979 536.394,738.712 538.437,740.448 540.48,742.186 542.523,743.927 544.566,745.671 546.609,747.416 548.653,749.164 550.696,750.913 552.739,752.664 
  554.782,754.416 556.825,756.169 558.868,757.924 560.912,759.679 562.955,761.435 564.998,763.192 567.041,764.949 569.084,766.706 571.127,768.463 573.17,770.22 
  575.214,771.977 577.257,773.733 579.3,775.489 581.343,777.244 583.386,778.997 585.429,780.75 587.473,782.501 589.516,784.25 591.559,785.998 593.602,787.744 
  595.645,789.487 597.688,791.229 599.731,792.968 601.775,794.704 603.818,796.438 605.861,798.168 607.904,799.896 609.947,801.62 611.99,803.341 614.034,805.058 
  616.077,806.771 618.12,808.48 620.163,810.186 622.206,811.886 624.249,813.583 626.292,815.274 628.336,816.961 630.379,818.643 632.422,820.319 634.465,821.991 
  636.508,823.656 638.551,825.316 640.594,826.97 642.638,828.619 644.681,830.261 646.724,831.896 648.767,833.525 650.81,835.148 652.853,836.763 654.897,838.372 
  656.94,839.974 658.983,841.568 661.026,843.154 663.069,844.734 665.112,846.305 667.155,847.868 669.199,849.423 671.242,850.97 673.285,852.509 675.328,854.039 
  677.371,855.56 679.414,857.073 681.458,858.576 683.501,860.07 685.544,861.555 687.587,863.031 689.63,864.496 691.673,865.952 693.716,867.399 695.76,868.835 
  697.803,870.261 699.846,871.676 701.889,873.081 703.932,874.476 705.975,875.859 708.019,877.232 710.062,878.594 712.105,879.944 714.148,881.284 716.191,882.611 
  718.234,883.928 720.277,885.232 722.321,886.525 724.364,887.805 726.407,889.074 728.45,890.33 730.493,891.575 732.536,892.806 734.579,894.025 736.623,895.231 
  738.666,896.425 740.709,897.605 742.752,898.773 744.795,899.927 746.838,901.068 748.882,902.195 750.925,903.309 752.968,904.409 755.011,905.496 757.054,906.569 
  759.097,907.627 761.14,908.672 763.184,909.702 765.227,910.718 767.27,911.72 769.313,912.707 771.356,913.68 773.399,914.638 775.443,915.581 777.486,916.51 
  779.529,917.423 781.572,918.321 783.615,919.205 785.658,920.072 787.701,920.925 789.745,921.762 791.788,922.584 793.831,923.39 795.874,924.181 797.917,924.955 
  799.96,925.714 802.004,926.457 804.047,927.184 806.09,927.896 808.133,928.59 810.176,929.269 812.219,929.932 814.262,930.578 816.306,931.208 818.349,931.821 
  820.392,932.418 822.435,932.999 824.478,933.562 826.521,934.109 828.564,934.64 830.608,935.153 832.651,935.65 834.694,936.13 836.737,936.593 838.78,937.039 
  840.823,937.468 842.867,937.88 844.91,938.275 846.953,938.652 848.996,939.013 851.039,939.356 853.082,939.682 855.125,939.991 857.169,940.282 859.212,940.556 
  861.255,940.813 863.298,941.052 865.341,941.274 867.384,941.478 869.428,941.665 871.471,941.835 873.514,941.987 875.557,942.121 877.6,942.238 879.643,942.337 
  881.686,942.419 883.73,942.484 885.773,942.53 887.816,942.559 889.859,942.571 891.902,942.565 893.945,942.541 895.988,942.5 898.032,942.442 900.075,942.365 
  902.118,942.272 904.161,942.16 906.204,942.031 908.247,941.885 910.291,941.721 912.334,941.54 914.377,941.341 916.42,941.125 918.463,940.891 920.506,940.64 
  922.549,940.371 924.593,940.085 926.636,939.782 928.679,939.462 930.722,939.124 932.765,938.769 934.808,938.397 936.852,938.007 938.895,937.601 940.938,937.177 
  942.981,936.737 945.024,936.279 947.067,935.805 949.11,935.313 951.154,934.805 953.197,934.28 955.24,933.738 957.283,933.18 959.326,932.605 961.369,932.013 
  963.413,931.405 965.456,930.78 967.499,930.139 969.542,929.482 971.585,928.808 973.628,928.119 975.671,927.413 977.715,926.691 979.758,925.953 981.801,925.199 
  983.844,924.429 985.887,923.644 987.93,922.842 989.973,922.026 992.017,921.193 994.06,920.346 996.103,919.483 998.146,918.604 1000.19,917.711 1002.23,916.802 
  1004.28,915.879 1006.32,914.94 1008.36,913.987 1010.41,913.019 1012.45,912.036 1014.49,911.039 1016.53,910.027 1018.58,909.002 1020.62,907.961 1022.66,906.907 
  1024.71,905.839 1026.75,904.757 1028.79,903.661 1030.84,902.551 1032.88,901.428 1034.92,900.292 1036.97,899.142 1039.01,897.978 1041.05,896.802 1043.1,895.613 
  1045.14,894.411 1047.18,893.196 1049.22,891.968 1051.27,890.728 1053.31,889.476 1055.35,888.211 1057.4,886.934 1059.44,885.645 1061.48,884.344 1063.53,883.032 
  1065.57,881.708 1067.61,880.372 1069.66,879.025 1071.7,877.667 1073.74,876.298 1075.79,874.917 1077.83,873.526 1079.87,872.125 1081.92,870.713 1083.96,869.29 
  1086,867.857 1088.04,866.414 1090.09,864.961 1092.13,863.499 1094.17,862.026 1096.22,860.544 1098.26,859.053 1100.3,857.553 1102.35,856.043 1104.39,854.525 
  1106.43,852.997 1108.48,851.461 1110.52,849.917 1112.56,848.364 1114.61,846.804 1116.65,845.235 1118.69,843.658 1120.74,842.074 1122.78,840.482 1124.82,838.883 
  1126.86,837.277 1128.91,835.663 1130.95,834.043 1132.99,832.416 1135.04,830.782 1137.08,829.142 1139.12,827.496 1141.17,825.844 1143.21,824.186 1145.25,822.522 
  1147.3,820.852 1149.34,819.177 1151.38,817.497 1153.43,815.812 1155.47,814.122 1157.51,812.427 1159.56,810.728 1161.6,809.024 1163.64,807.316 1165.68,805.604 
  1167.73,803.888 1169.77,802.169 1171.81,800.446 1173.86,798.719 1175.9,796.989 1177.94,795.257 1179.99,793.521 1182.03,791.783 1184.07,790.042 1186.12,788.299 
  1188.16,786.554 1190.2,784.807 1192.25,783.058 1194.29,781.308 1196.33,779.556 1198.38,777.802 1200.42,776.048 1202.46,774.293 1204.5,772.537 1206.55,770.78 
  1208.59,769.023 1210.63,767.266 1212.68,765.509 1214.72,763.752 1216.76,761.995 1218.81,760.238 1220.85,758.483 1222.89,756.728 1224.94,754.974 1226.98,753.222 
  1229.02,751.47 1231.07,749.721 1233.11,747.973 1235.15,746.226 1237.19,744.482 1239.24,742.741 1241.28,741.001 1243.32,739.264 1245.37,737.53 1247.41,735.799 
  1249.45,734.071 1251.5,732.346 1253.54,730.625 1255.58,728.907 1257.63,727.194 1259.67,725.484 1261.71,723.778 1263.76,722.076 1265.8,720.379 1267.84,718.687 
  1269.89,717 1271.93,715.317 1273.97,713.64 1276.01,711.967 1278.06,710.301 1280.1,708.64 1282.14,706.985 1284.19,705.336 1286.23,703.693 1288.27,702.056 
  1290.32,700.426 1292.36,698.802 1294.4,697.186 1296.45,695.576 1298.49,693.973 1300.53,692.378 1302.58,690.79 1304.62,689.21 1306.66,687.637 1308.71,686.072 
  1310.75,684.516 1312.79,682.968 1314.83,681.428 1316.88,679.896 1318.92,678.374 1320.96,676.86 1323.01,675.355 1325.05,673.859 1327.09,672.373 1329.14,670.896 
  1331.18,669.429 1333.22,667.971 1335.27,666.523 1337.31,665.086 1339.35,663.658 1341.4,662.241 1343.44,660.834 1345.48,659.438 1347.53,658.053 1349.57,656.678 
  1351.61,655.315 1353.65,653.962 1355.7,652.621 1357.74,651.292 1359.78,649.973 1361.83,648.667 1363.87,647.373 1365.91,646.09 1367.96,644.819 1370,643.561 
  1372.04,642.315 1374.09,641.081 1376.13,639.86 1378.17,638.652 1380.22,637.457 1382.26,636.274 1384.3,635.105 1386.34,633.948 1388.39,632.805 1390.43,631.676 
  1392.47,630.56 1394.52,629.457 1396.56,628.368 1398.6,627.294 1400.65,626.233 1402.69,625.186 1404.73,624.153 1406.78,623.135 1408.82,622.131 1410.86,621.141 
  1412.91,620.166 1414.95,619.206 1416.99,618.26 1419.04,617.329 1421.08,616.414 1423.12,615.513 1425.16,614.627 1427.21,613.757 1429.25,612.902 1431.29,612.062 
  1433.34,611.238 1435.38,610.429 1437.42,609.636 1439.47,608.859 1441.51,608.098 1443.55,607.352 1445.6,606.622 1447.64,605.909 1449.68,605.211 1451.73,604.53 
  1453.77,603.865 1455.81,603.216 1457.86,602.583 1459.9,601.967 1461.94,601.368 1463.98,600.785 1466.03,600.218 1468.07,599.669 1470.11,599.136 1472.16,598.619 
  1474.2,598.12 1476.24,597.637 1478.29,597.172 1480.33,596.723 1482.37,596.291 1484.42,595.877 1486.46,595.479 1488.5,595.099 1490.55,594.736 1492.59,594.39 
  1494.63,594.061 1496.68,593.75 1498.72,593.455 1500.76,593.179 1502.8,592.919 1504.85,592.677 1506.89,592.453 1508.93,592.245 1510.98,592.056 1513.02,591.883 
  1515.06,591.729 1517.11,591.591 1519.15,591.472 1521.19,591.369 1523.24,591.285 1525.28,591.218 1527.32,591.168 1529.37,591.136 1531.41,591.122 1533.45,591.125 
  1535.5,591.146 1537.54,591.184 1539.58,591.24 1541.62,591.313 1543.67,591.404 1545.71,591.513 1547.75,591.639 1549.8,591.783 1551.84,591.944 1553.88,592.122 
  1555.93,592.319 1557.97,592.532 1560.01,592.763 1562.06,593.011 1564.1,593.277 1566.14,593.56 1568.19,593.861 1570.23,594.178 1572.27,594.513 1574.31,594.866 
  1576.36,595.235 1578.4,595.622 1580.44,596.025 1582.49,596.446 1584.53,596.884 1586.57,597.339 1588.62,597.811 1590.66,598.299 1592.7,598.805 1594.75,599.327 
  1596.79,599.866 1598.83,600.422 1600.88,600.995 1602.92,601.584 1604.96,602.189 1607.01,602.811 1609.05,603.45 1611.09,604.104 1613.13,604.775 1615.18,605.463 
  1617.22,606.166 1619.26,606.885 1621.31,607.621 1623.35,608.372 1625.39,609.139 1627.44,609.922 1629.48,610.721 1631.52,611.535 1633.57,612.365 1635.61,613.21 
  1637.65,614.071 1639.7,614.947 1641.74,615.838 1643.78,616.744 1645.83,617.665 1647.87,618.602 1649.91,619.553 1651.95,620.518 1654,621.499 1656.04,622.493 
  1658.08,623.503 1660.13,624.526 1662.17,625.564 1664.21,626.616 1666.26,627.682 1668.3,628.762 1670.34,629.856 1672.39,630.963 1674.43,632.084 1676.47,633.219 
  1678.52,634.366 1680.56,635.528 1682.6,636.702 1684.65,637.889 1686.69,639.089 1688.73,640.302 1690.77,641.528 1692.82,642.766 1694.86,644.016 1696.9,645.279 
  1698.95,646.554 1700.99,647.841 1703.03,649.14 1705.08,650.451 1707.12,651.773 1709.16,653.107 1711.21,654.452 1713.25,655.808 1715.29,657.176 1717.34,658.554 
  1719.38,659.943 1721.42,661.343 1723.47,662.754 1725.51,664.175 1727.55,665.606 1729.59,667.048 1731.64,668.499 1733.68,669.96 1735.72,671.431 1737.77,672.911 
  1739.81,674.401 1741.85,675.9 1743.9,677.408 1745.94,678.925 1747.98,680.451 1750.03,681.986 1752.07,683.529 1754.11,685.08 1756.16,686.639 1758.2,688.207 
  1760.24,689.782 1762.28,691.365 1764.33,692.956 1766.37,694.554 1768.41,696.159 1770.46,697.772 1772.5,699.391 1774.54,701.017 1776.59,702.649 1778.63,704.288 
  1780.67,705.934 1782.72,707.585 1784.76,709.242 1786.8,710.905 1788.85,712.574 1790.89,714.248 1792.93,715.927 1794.98,717.611 1797.02,719.301 1799.06,720.995 
  1801.1,722.693 1803.15,724.396 1805.19,726.104 1807.23,727.815 1809.28,729.53 1811.32,731.249 1813.36,732.972 1815.41,734.698 1817.45,736.427 1819.49,738.159 
  1821.54,739.894 1823.58,741.632 1825.62,743.373 1827.67,745.115 1829.71,746.86 1831.75,748.607 1833.8,750.355 1835.84,752.106 1837.88,753.858 1839.92,755.611 
  1841.97,757.365 1844.01,759.12 1846.05,760.876 1848.1,762.632 1850.14,764.389 1852.18,766.146 1854.23,767.904 1856.27,769.661 1858.31,771.418 1860.36,773.174 
  1862.4,774.93 1864.44,776.685 1866.49,778.439 1868.53,780.192 1870.57,781.943 1872.62,783.693 1874.66,785.441 1876.7,787.188 1878.74,788.932 1880.79,790.674 
  1882.83,792.414 1884.87,794.151 1886.92,795.886 1888.96,797.617 1891,799.346 1893.05,801.071 1895.09,802.793 1897.13,804.511 1899.18,806.226 1901.22,807.936 
  1903.26,809.643 1905.31,811.345 1907.35,813.043 1909.39,814.736 1911.44,816.424 1913.48,818.108 1915.52,819.786 1917.56,821.459 1919.61,823.126 1921.65,824.788 
  1923.69,826.444 1925.74,828.094 1927.78,829.738 1929.82,831.376 1931.87,833.007 1933.91,834.632 1935.95,836.25 1938,837.86 1940.04,839.464 1942.08,841.061 
  1944.13,842.65 1946.17,844.231 1948.21,845.805 1950.25,847.371 1952.3,848.929 1954.34,850.479 1956.38,852.02 1958.43,853.553 1960.47,855.077 1962.51,856.592 
  1964.56,858.098 1966.6,859.595 1968.64,861.083 1970.69,862.562 1972.73,864.031 1974.77,865.49 1976.82,866.939 1978.86,868.378 1980.9,869.807 1982.95,871.226 
  1984.99,872.635 1987.03,874.033 1989.07,875.42 1991.12,876.796 1993.16,878.161 1995.2,879.515 1997.25,880.858 1999.29,882.19 2001.33,883.51 2003.38,884.818 
  2005.42,886.114 2007.46,887.399 2009.51,888.671 2011.55,889.932 2013.59,891.18 2015.64,892.415 2017.68,893.638 2019.72,894.848 2021.77,896.046 2023.81,897.231 
  2025.85,898.402 2027.89,899.561 2029.94,900.706 2031.98,901.837 2034.02,902.956 2036.07,904.06 2038.11,905.151 2040.15,906.228 2042.2,907.291 2044.24,908.341 
  2046.28,909.376 2048.33,910.396 2050.37,911.403 2052.41,912.394 2054.46,913.372 2056.5,914.335 2058.54,915.282 2060.59,916.216 2062.63,917.134 2064.67,918.037 
  2066.71,918.925 2068.76,919.798 2070.8,920.655 2072.84,921.497 2074.89,922.324 2076.93,923.135 2078.97,923.931 2081.02,924.71 2083.06,925.474 2085.1,926.222 
  2087.15,926.955 2089.19,927.671 2091.23,928.371 2093.28,929.055 2095.32,929.723 2097.36,930.374 2099.41,931.009 2101.45,931.628 2103.49,932.23 2105.53,932.816 
  2107.58,933.385 2109.62,933.937 2111.66,934.473 2113.71,934.992 2115.75,935.494 2117.79,935.979 2119.84,936.447 2121.88,936.899 2123.92,937.333 2125.97,937.75 
  2128.01,938.151 2130.05,938.534 2132.1,938.9 2134.14,939.248 2136.18,939.58 2138.22,939.894 2140.27,940.191 2142.31,940.471 2144.35,940.733 2146.4,940.978 
  2148.44,941.205 2150.48,941.415 2152.53,941.608 2154.57,941.783 2156.61,941.94 2158.66,942.08 2160.7,942.203 2162.74,942.308 2164.79,942.395 2166.83,942.465 
  2168.87,942.517 2170.92,942.552 2172.96,942.569 2175,942.569 2177.04,942.551 2179.09,942.515 2181.13,942.462 2183.17,942.392 2185.22,942.303 2187.26,942.198 
  2189.3,942.074 2191.35,941.934 2193.39,941.775 2195.43,941.599 2197.48,941.406 2199.52,941.195 2201.56,940.967 2203.61,940.722 2205.65,940.459 2207.69,940.178 
  2209.74,939.881 2211.78,939.566 2213.82,939.233 2215.86,938.884 2217.91,938.517 2219.95,938.133 2221.99,937.732 2224.04,937.314 2226.08,936.879 2228.12,936.427 
  2230.17,935.958 2232.21,935.472 2234.25,934.969 2236.3,934.449 2238.34,933.913 2240.38,933.36 2242.43,932.79 2244.47,932.204 2246.51,931.601 2248.56,930.981 
  2250.6,930.345 2252.64,929.693 2254.68,929.025 2256.73,928.34 2258.77,927.639 2260.81,926.922 2262.86,926.19 2264.9,925.441 2266.94,924.676 2268.99,923.896 
  2271.03,923.099 2273.07,922.288 2275.12,921.46 2277.16,920.617 2279.2,919.759 2281.25,918.886 2283.29,917.997 2285.33,917.093 2287.38,916.174 2289.42,915.241 
  2291.46,914.292 
  "/>
<path clip-path="url(#clip110)" d="
M1970.62 713.955 L2280.56 713.955 L2280.56 592.995 L1970.62 592.995  Z
  " fill="#ffffff" fill-rule="evenodd" fill-opacity="1"/>
<polyline clip-path="url(#clip110)" style="stroke:#000000; stroke-width:4; stroke-opacity:1; fill:none" points="
  1970.62,713.955 2280.56,713.955 2280.56,592.995 1970.62,592.995 1970.62,713.955 
  "/>
<polyline clip-path="url(#clip110)" style="stroke:#009af9; stroke-width:4; stroke-opacity:1; fill:none" points="
  1994.69,653.475 2139.07,653.475 
  "/>
<path clip-path="url(#clip110)" d="M 0 0 M2183.64 645.825 L2183.64 649.806 Q2181.84 648.811 2180.01 648.325 Q2178.2 647.816 2176.35 647.816 Q2172.21 647.816 2169.91 650.455 Q2167.62 653.07 2167.62 657.816 Q2167.62 662.561 2169.91 665.2 Q2172.21 667.816 2176.35 667.816 Q2178.2 667.816 2180.01 667.329 Q2181.84 666.82 2183.64 665.825 L2183.64 669.76 Q2181.86 670.593 2179.94 671.01 Q2178.04 671.427 2175.89 671.427 Q2170.03 671.427 2166.58 667.746 Q2163.13 664.066 2163.13 657.816 Q2163.13 651.473 2166.6 647.839 Q2170.1 644.205 2176.16 644.205 Q2178.13 644.205 2180.01 644.621 Q2181.88 645.015 2183.64 645.825 Z" fill="#000000" fill-rule="evenodd" fill-opacity="1" /><path clip-path="url(#clip110)" d="M 0 0 M2198.15 647.816 Q2194.73 647.816 2192.74 650.501 Q2190.75 653.163 2190.75 657.816 Q2190.75 662.468 2192.71 665.154 Q2194.71 667.816 2198.15 667.816 Q2201.56 667.816 2203.55 665.13 Q2205.54 662.445 2205.54 657.816 Q2205.54 653.209 2203.55 650.524 Q2201.56 647.816 2198.15 647.816 M2198.15 644.205 Q2203.71 644.205 2206.88 647.816 Q2210.05 651.427 2210.05 657.816 Q2210.05 664.181 2206.88 667.816 Q2203.71 671.427 2198.15 671.427 Q2192.58 671.427 2189.4 667.816 Q2186.26 664.181 2186.26 657.816 Q2186.26 651.427 2189.4 647.816 Q2192.58 644.205 2198.15 644.205 Z" fill="#000000" fill-rule="evenodd" fill-opacity="1" /><path clip-path="url(#clip110)" d="M 0 0 M2231.05 645.593 L2231.05 649.621 Q2229.24 648.695 2227.3 648.232 Q2225.35 647.769 2223.27 647.769 Q2220.1 647.769 2218.5 648.742 Q2216.93 649.714 2216.93 651.658 Q2216.93 653.14 2218.06 653.996 Q2219.2 654.829 2222.62 655.593 L2224.08 655.917 Q2228.62 656.89 2230.52 658.672 Q2232.44 660.431 2232.44 663.603 Q2232.44 667.214 2229.57 669.32 Q2226.72 671.427 2221.72 671.427 Q2219.64 671.427 2217.37 671.01 Q2215.12 670.616 2212.62 669.806 L2212.62 665.408 Q2214.98 666.635 2217.27 667.26 Q2219.57 667.862 2221.81 667.862 Q2224.82 667.862 2226.44 666.843 Q2228.06 665.802 2228.06 663.927 Q2228.06 662.191 2226.88 661.265 Q2225.72 660.339 2221.77 659.482 L2220.28 659.135 Q2216.33 658.302 2214.57 656.589 Q2212.81 654.853 2212.81 651.843 Q2212.81 648.186 2215.4 646.195 Q2217.99 644.205 2222.76 644.205 Q2225.12 644.205 2227.21 644.552 Q2229.29 644.899 2231.05 645.593 Z" fill="#000000" fill-rule="evenodd" fill-opacity="1" /><path clip-path="url(#clip110)" d="
M187.015 1486.45 L2352.76 1486.45 L2352.76 1113.91 L187.015 1113.91  Z
  " fill="#ffffff" fill-rule="evenodd" fill-opacity="1"/>
<defs>
  <clipPath id="clip114">
    <rect x="187" y="1113" width="2167" height="374"/>
  </clipPath>
</defs>
<polyline clip-path="url(#clip114)" style="stroke:#000000; stroke-width:2; stroke-opacity:0.1; fill:none" points="
  248.309,1486.45 248.309,1113.91 
  "/>
<polyline clip-path="url(#clip114)" style="stroke:#000000; stroke-width:2; stroke-opacity:0.1; fill:none" points="
  759.097,1486.45 759.097,1113.91 
  "/>
<polyline clip-path="url(#clip114)" style="stroke:#000000; stroke-width:2; stroke-opacity:0.1; fill:none" points="
  1269.89,1486.45 1269.89,1113.91 
  "/>
<polyline clip-path="url(#clip114)" style="stroke:#000000; stroke-width:2; stroke-opacity:0.1; fill:none" points="
  1780.67,1486.45 1780.67,1113.91 
  "/>
<polyline clip-path="url(#clip114)" style="stroke:#000000; stroke-width:2; stroke-opacity:0.1; fill:none" points="
  2291.46,1486.45 2291.46,1113.91 
  "/>
<polyline clip-path="url(#clip114)" style="stroke:#000000; stroke-width:2; stroke-opacity:0.1; fill:none" points="
  187.015,1434.84 2352.76,1434.84 
  "/>
<polyline clip-path="url(#clip114)" style="stroke:#000000; stroke-width:2; stroke-opacity:0.1; fill:none" points="
  187.015,1360.69 2352.76,1360.69 
  "/>
<polyline clip-path="url(#clip114)" style="stroke:#000000; stroke-width:2; stroke-opacity:0.1; fill:none" points="
  187.015,1286.54 2352.76,1286.54 
  "/>
<polyline clip-path="url(#clip114)" style="stroke:#000000; stroke-width:2; stroke-opacity:0.1; fill:none" points="
  187.015,1212.39 2352.76,1212.39 
  "/>
<polyline clip-path="url(#clip114)" style="stroke:#000000; stroke-width:2; stroke-opacity:0.1; fill:none" points="
  187.015,1138.24 2352.76,1138.24 
  "/>
<polyline clip-path="url(#clip110)" style="stroke:#000000; stroke-width:4; stroke-opacity:1; fill:none" points="
  187.015,1486.45 2352.76,1486.45 
  "/>
<polyline clip-path="url(#clip110)" style="stroke:#000000; stroke-width:4; stroke-opacity:1; fill:none" points="
  187.015,1486.45 187.015,1113.91 
  "/>
<polyline clip-path="url(#clip110)" style="stroke:#000000; stroke-width:4; stroke-opacity:1; fill:none" points="
  248.309,1486.45 248.309,1481.98 
  "/>
<polyline clip-path="url(#clip110)" style="stroke:#000000; stroke-width:4; stroke-opacity:1; fill:none" points="
  759.097,1486.45 759.097,1481.98 
  "/>
<polyline clip-path="url(#clip110)" style="stroke:#000000; stroke-width:4; stroke-opacity:1; fill:none" points="
  1269.89,1486.45 1269.89,1481.98 
  "/>
<polyline clip-path="url(#clip110)" style="stroke:#000000; stroke-width:4; stroke-opacity:1; fill:none" points="
  1780.67,1486.45 1780.67,1481.98 
  "/>
<polyline clip-path="url(#clip110)" style="stroke:#000000; stroke-width:4; stroke-opacity:1; fill:none" points="
  2291.46,1486.45 2291.46,1481.98 
  "/>
<polyline clip-path="url(#clip110)" style="stroke:#000000; stroke-width:4; stroke-opacity:1; fill:none" points="
  187.015,1434.84 213.004,1434.84 
  "/>
<polyline clip-path="url(#clip110)" style="stroke:#000000; stroke-width:4; stroke-opacity:1; fill:none" points="
  187.015,1360.69 213.004,1360.69 
  "/>
<polyline clip-path="url(#clip110)" style="stroke:#000000; stroke-width:4; stroke-opacity:1; fill:none" points="
  187.015,1286.54 213.004,1286.54 
  "/>
<polyline clip-path="url(#clip110)" style="stroke:#000000; stroke-width:4; stroke-opacity:1; fill:none" points="
  187.015,1212.39 213.004,1212.39 
  "/>
<polyline clip-path="url(#clip110)" style="stroke:#000000; stroke-width:4; stroke-opacity:1; fill:none" points="
  187.015,1138.24 213.004,1138.24 
  "/>
<path clip-path="url(#clip110)" d="M 0 0 M229.826 1508.44 Q226.215 1508.44 224.386 1512 Q222.58 1515.55 222.58 1522.67 Q222.58 1529.78 224.386 1533.35 Q226.215 1536.89 229.826 1536.89 Q233.46 1536.89 235.265 1533.35 Q237.094 1529.78 237.094 1522.67 Q237.094 1515.55 235.265 1512 Q233.46 1508.44 229.826 1508.44 M229.826 1504.73 Q235.636 1504.73 238.691 1509.34 Q241.77 1513.92 241.77 1522.67 Q241.77 1531.4 238.691 1536.01 Q235.636 1540.59 229.826 1540.59 Q224.015 1540.59 220.937 1536.01 Q217.881 1531.4 217.881 1522.67 Q217.881 1513.92 220.937 1509.34 Q224.015 1504.73 229.826 1504.73 Z" fill="#000000" fill-rule="evenodd" fill-opacity="1" /><path clip-path="url(#clip110)" d="M 0 0 M246.839 1534.04 L251.724 1534.04 L251.724 1539.92 L246.839 1539.92 L246.839 1534.04 Z" fill="#000000" fill-rule="evenodd" fill-opacity="1" /><path clip-path="url(#clip110)" d="M 0 0 M266.793 1508.44 Q263.182 1508.44 261.353 1512 Q259.548 1515.55 259.548 1522.67 Q259.548 1529.78 261.353 1533.35 Q263.182 1536.89 266.793 1536.89 Q270.427 1536.89 272.233 1533.35 Q274.061 1529.78 274.061 1522.67 Q274.061 1515.55 272.233 1512 Q270.427 1508.44 266.793 1508.44 M266.793 1504.73 Q272.603 1504.73 275.659 1509.34 Q278.737 1513.92 278.737 1522.67 Q278.737 1531.4 275.659 1536.01 Q272.603 1540.59 266.793 1540.59 Q260.983 1540.59 257.904 1536.01 Q254.849 1531.4 254.849 1522.67 Q254.849 1513.92 257.904 1509.34 Q260.983 1504.73 266.793 1504.73 Z" fill="#000000" fill-rule="evenodd" fill-opacity="1" /><path clip-path="url(#clip110)" d="M 0 0 M735.764 1535.98 L752.083 1535.98 L752.083 1539.92 L730.139 1539.92 L730.139 1535.98 Q732.801 1533.23 737.384 1528.6 Q741.991 1523.95 743.171 1522.61 Q745.417 1520.08 746.296 1518.35 Q747.199 1516.59 747.199 1514.9 Q747.199 1512.14 745.255 1510.41 Q743.334 1508.67 740.232 1508.67 Q738.033 1508.67 735.579 1509.43 Q733.148 1510.2 730.371 1511.75 L730.371 1507.03 Q733.195 1505.89 735.648 1505.31 Q738.102 1504.73 740.139 1504.73 Q745.509 1504.73 748.704 1507.42 Q751.898 1510.11 751.898 1514.6 Q751.898 1516.73 751.088 1518.65 Q750.301 1520.54 748.195 1523.14 Q747.616 1523.81 744.514 1527.03 Q741.412 1530.22 735.764 1535.98 Z" fill="#000000" fill-rule="evenodd" fill-opacity="1" /><path clip-path="url(#clip110)" d="M 0 0 M757.153 1534.04 L762.037 1534.04 L762.037 1539.92 L757.153 1539.92 L757.153 1534.04 Z" fill="#000000" fill-rule="evenodd" fill-opacity="1" /><path clip-path="url(#clip110)" d="M 0 0 M767.153 1505.36 L785.509 1505.36 L785.509 1509.3 L771.435 1509.3 L771.435 1517.77 Q772.454 1517.42 773.472 1517.26 Q774.491 1517.07 775.509 1517.07 Q781.296 1517.07 784.676 1520.24 Q788.055 1523.42 788.055 1528.83 Q788.055 1534.41 784.583 1537.51 Q781.111 1540.59 774.792 1540.59 Q772.616 1540.59 770.347 1540.22 Q768.102 1539.85 765.694 1539.11 L765.694 1534.41 Q767.778 1535.54 770 1536.1 Q772.222 1536.66 774.699 1536.66 Q778.704 1536.66 781.042 1534.55 Q783.38 1532.44 783.38 1528.83 Q783.38 1525.22 781.042 1523.11 Q778.704 1521.01 774.699 1521.01 Q772.824 1521.01 770.949 1521.42 Q769.097 1521.84 767.153 1522.72 L767.153 1505.36 Z" fill="#000000" fill-rule="evenodd" fill-opacity="1" /><path clip-path="url(#clip110)" d="M 0 0 M1241.68 1505.36 L1260.04 1505.36 L1260.04 1509.3 L1245.96 1509.3 L1245.96 1517.77 Q1246.98 1517.42 1248 1517.26 Q1249.02 1517.07 1250.04 1517.07 Q1255.82 1517.07 1259.2 1520.24 Q1262.58 1523.42 1262.58 1528.83 Q1262.58 1534.41 1259.11 1537.51 Q1255.64 1540.59 1249.32 1540.59 Q1247.14 1540.59 1244.87 1540.22 Q1242.63 1539.85 1240.22 1539.11 L1240.22 1534.41 Q1242.3 1535.54 1244.53 1536.1 Q1246.75 1536.66 1249.23 1536.66 Q1253.23 1536.66 1255.57 1534.55 Q1257.91 1532.44 1257.91 1528.83 Q1257.91 1525.22 1255.57 1523.11 Q1253.23 1521.01 1249.23 1521.01 Q1247.35 1521.01 1245.48 1521.42 Q1243.62 1521.84 1241.68 1522.72 L1241.68 1505.36 Z" fill="#000000" fill-rule="evenodd" fill-opacity="1" /><path clip-path="url(#clip110)" d="M 0 0 M1267.65 1534.04 L1272.54 1534.04 L1272.54 1539.92 L1267.65 1539.92 L1267.65 1534.04 Z" fill="#000000" fill-rule="evenodd" fill-opacity="1" /><path clip-path="url(#clip110)" d="M 0 0 M1287.61 1508.44 Q1283.99 1508.44 1282.17 1512 Q1280.36 1515.55 1280.36 1522.67 Q1280.36 1529.78 1282.17 1533.35 Q1283.99 1536.89 1287.61 1536.89 Q1291.24 1536.89 1293.04 1533.35 Q1294.87 1529.78 1294.87 1522.67 Q1294.87 1515.55 1293.04 1512 Q1291.24 1508.44 1287.61 1508.44 M1287.61 1504.73 Q1293.42 1504.73 1296.47 1509.34 Q1299.55 1513.92 1299.55 1522.67 Q1299.55 1531.4 1296.47 1536.01 Q1293.42 1540.59 1287.61 1540.59 Q1281.79 1540.59 1278.72 1536.01 Q1275.66 1531.4 1275.66 1522.67 Q1275.66 1513.92 1278.72 1509.34 Q1281.79 1504.73 1287.61 1504.73 Z" fill="#000000" fill-rule="evenodd" fill-opacity="1" /><path clip-path="url(#clip110)" d="M 0 0 M1751.58 1505.36 L1773.8 1505.36 L1773.8 1507.35 L1761.25 1539.92 L1756.37 1539.92 L1768.17 1509.3 L1751.58 1509.3 L1751.58 1505.36 Z" fill="#000000" fill-rule="evenodd" fill-opacity="1" /><path clip-path="url(#clip110)" d="M 0 0 M1778.87 1534.04 L1783.75 1534.04 L1783.75 1539.92 L1778.87 1539.92 L1778.87 1534.04 Z" fill="#000000" fill-rule="evenodd" fill-opacity="1" /><path clip-path="url(#clip110)" d="M 0 0 M1788.87 1505.36 L1807.22 1505.36 L1807.22 1509.3 L1793.15 1509.3 L1793.15 1517.77 Q1794.17 1517.42 1795.19 1517.26 Q1796.21 1517.07 1797.22 1517.07 Q1803.01 1517.07 1806.39 1520.24 Q1809.77 1523.42 1809.77 1528.83 Q1809.77 1534.41 1806.3 1537.51 Q1802.83 1540.59 1796.51 1540.59 Q1794.33 1540.59 1792.06 1540.22 Q1789.82 1539.85 1787.41 1539.11 L1787.41 1534.41 Q1789.49 1535.54 1791.71 1536.1 Q1793.94 1536.66 1796.41 1536.66 Q1800.42 1536.66 1802.76 1534.55 Q1805.09 1532.44 1805.09 1528.83 Q1805.09 1525.22 1802.76 1523.11 Q1800.42 1521.01 1796.41 1521.01 Q1794.54 1521.01 1792.66 1521.42 Q1790.81 1521.84 1788.87 1522.72 L1788.87 1505.36 Z" fill="#000000" fill-rule="evenodd" fill-opacity="1" /><path clip-path="url(#clip110)" d="M 0 0 M2249.85 1535.98 L2257.49 1535.98 L2257.49 1509.62 L2249.18 1511.29 L2249.18 1507.03 L2257.45 1505.36 L2262.12 1505.36 L2262.12 1535.98 L2269.76 1535.98 L2269.76 1539.92 L2249.85 1539.92 L2249.85 1535.98 Z" fill="#000000" fill-rule="evenodd" fill-opacity="1" /><path clip-path="url(#clip110)" d="M 0 0 M2284.83 1508.44 Q2281.22 1508.44 2279.39 1512 Q2277.58 1515.55 2277.58 1522.67 Q2277.58 1529.78 2279.39 1533.35 Q2281.22 1536.89 2284.83 1536.89 Q2288.46 1536.89 2290.27 1533.35 Q2292.1 1529.78 2292.1 1522.67 Q2292.1 1515.55 2290.27 1512 Q2288.46 1508.44 2284.83 1508.44 M2284.83 1504.73 Q2290.64 1504.73 2293.7 1509.34 Q2296.77 1513.92 2296.77 1522.67 Q2296.77 1531.4 2293.7 1536.01 Q2290.64 1540.59 2284.83 1540.59 Q2279.02 1540.59 2275.94 1536.01 Q2272.89 1531.4 2272.89 1522.67 Q2272.89 1513.92 2275.94 1509.34 Q2279.02 1504.73 2284.83 1504.73 Z" fill="#000000" fill-rule="evenodd" fill-opacity="1" /><path clip-path="url(#clip110)" d="M 0 0 M2301.84 1534.04 L2306.73 1534.04 L2306.73 1539.92 L2301.84 1539.92 L2301.84 1534.04 Z" fill="#000000" fill-rule="evenodd" fill-opacity="1" /><path clip-path="url(#clip110)" d="M 0 0 M2321.8 1508.44 Q2318.19 1508.44 2316.36 1512 Q2314.55 1515.55 2314.55 1522.67 Q2314.55 1529.78 2316.36 1533.35 Q2318.19 1536.89 2321.8 1536.89 Q2325.43 1536.89 2327.24 1533.35 Q2329.07 1529.78 2329.07 1522.67 Q2329.07 1515.55 2327.24 1512 Q2325.43 1508.44 2321.8 1508.44 M2321.8 1504.73 Q2327.61 1504.73 2330.66 1509.34 Q2333.74 1513.92 2333.74 1522.67 Q2333.74 1531.4 2330.66 1536.01 Q2327.61 1540.59 2321.8 1540.59 Q2315.99 1540.59 2312.91 1536.01 Q2309.85 1531.4 2309.85 1522.67 Q2309.85 1513.92 2312.91 1509.34 Q2315.99 1504.73 2321.8 1504.73 Z" fill="#000000" fill-rule="evenodd" fill-opacity="1" /><path clip-path="url(#clip110)" d="M 0 0 M151.07 1420.63 Q147.459 1420.63 145.631 1424.2 Q143.825 1427.74 143.825 1434.87 Q143.825 1441.98 145.631 1445.54 Q147.459 1449.08 151.07 1449.08 Q154.705 1449.08 156.51 1445.54 Q158.339 1441.98 158.339 1434.87 Q158.339 1427.74 156.51 1424.2 Q154.705 1420.63 151.07 1420.63 M151.07 1416.93 Q156.881 1416.93 159.936 1421.54 Q163.015 1426.12 163.015 1434.87 Q163.015 1443.6 159.936 1448.2 Q156.881 1452.79 151.07 1452.79 Q145.26 1452.79 142.182 1448.2 Q139.126 1443.6 139.126 1434.87 Q139.126 1426.12 142.182 1421.54 Q145.26 1416.93 151.07 1416.93 Z" fill="#000000" fill-rule="evenodd" fill-opacity="1" /><path clip-path="url(#clip110)" d="M 0 0 M101.858 1359.33 Q105.214 1360.05 107.089 1362.32 Q108.987 1364.59 108.987 1367.92 Q108.987 1373.04 105.469 1375.84 Q101.95 1378.64 95.4688 1378.64 Q93.2929 1378.64 90.9781 1378.2 Q88.6864 1377.78 86.2327 1376.92 L86.2327 1372.41 Q88.1772 1373.55 90.492 1374.12 Q92.8068 1374.7 95.3299 1374.7 Q99.728 1374.7 102.02 1372.97 Q104.334 1371.23 104.334 1367.92 Q104.334 1364.86 102.182 1363.15 Q100.052 1361.42 96.2327 1361.42 L92.2049 1361.42 L92.2049 1357.57 L96.4179 1357.57 Q99.8669 1357.57 101.696 1356.21 Q103.524 1354.82 103.524 1352.23 Q103.524 1349.56 101.626 1348.15 Q99.7512 1346.72 96.2327 1346.72 Q94.3114 1346.72 92.1123 1347.13 Q89.9133 1347.55 87.2744 1348.43 L87.2744 1344.26 Q89.9364 1343.52 92.2512 1343.15 Q94.5892 1342.78 96.6494 1342.78 Q101.973 1342.78 105.075 1345.21 Q108.177 1347.62 108.177 1351.74 Q108.177 1354.61 106.534 1356.6 Q104.89 1358.57 101.858 1359.33 Z" fill="#000000" fill-rule="evenodd" fill-opacity="1" /><path clip-path="url(#clip110)" d="M 0 0 M124.057 1346.49 Q120.446 1346.49 118.617 1350.05 Q116.811 1353.59 116.811 1360.72 Q116.811 1367.83 118.617 1371.39 Q120.446 1374.93 124.057 1374.93 Q127.691 1374.93 129.496 1371.39 Q131.325 1367.83 131.325 1360.72 Q131.325 1353.59 129.496 1350.05 Q127.691 1346.49 124.057 1346.49 M124.057 1342.78 Q129.867 1342.78 132.922 1347.39 Q136.001 1351.97 136.001 1360.72 Q136.001 1369.45 132.922 1374.05 Q129.867 1378.64 124.057 1378.64 Q118.246 1378.64 115.168 1374.05 Q112.112 1369.45 112.112 1360.72 Q112.112 1351.97 115.168 1347.39 Q118.246 1342.78 124.057 1342.78 Z" fill="#000000" fill-rule="evenodd" fill-opacity="1" /><path clip-path="url(#clip110)" d="M 0 0 M151.07 1346.49 Q147.459 1346.49 145.631 1350.05 Q143.825 1353.59 143.825 1360.72 Q143.825 1367.83 145.631 1371.39 Q147.459 1374.93 151.07 1374.93 Q154.705 1374.93 156.51 1371.39 Q158.339 1367.83 158.339 1360.72 Q158.339 1353.59 156.51 1350.05 Q154.705 1346.49 151.07 1346.49 M151.07 1342.78 Q156.881 1342.78 159.936 1347.39 Q163.015 1351.97 163.015 1360.72 Q163.015 1369.45 159.936 1374.05 Q156.881 1378.64 151.07 1378.64 Q145.26 1378.64 142.182 1374.05 Q139.126 1369.45 139.126 1360.72 Q139.126 1351.97 142.182 1347.39 Q145.26 1342.78 151.07 1342.78 Z" fill="#000000" fill-rule="evenodd" fill-opacity="1" /><path clip-path="url(#clip110)" d="M 0 0 M97.4595 1284.67 Q94.3114 1284.67 92.4596 1286.83 Q90.6309 1288.98 90.6309 1292.73 Q90.6309 1296.46 92.4596 1298.63 Q94.3114 1300.78 97.4595 1300.78 Q100.608 1300.78 102.436 1298.63 Q104.288 1296.46 104.288 1292.73 Q104.288 1288.98 102.436 1286.83 Q100.608 1284.67 97.4595 1284.67 M106.742 1270.02 L106.742 1274.28 Q104.983 1273.45 103.177 1273.01 Q101.395 1272.57 99.6354 1272.57 Q95.0058 1272.57 92.5522 1275.69 Q90.1216 1278.82 89.7744 1285.14 Q91.1401 1283.12 93.2003 1282.06 Q95.2605 1280.97 97.7373 1280.97 Q102.946 1280.97 105.955 1284.14 Q108.987 1287.29 108.987 1292.73 Q108.987 1298.05 105.839 1301.27 Q102.691 1304.49 97.4595 1304.49 Q91.4642 1304.49 88.2929 1299.9 Q85.1216 1295.3 85.1216 1286.57 Q85.1216 1278.38 89.0105 1273.52 Q92.8994 1268.63 99.4503 1268.63 Q101.21 1268.63 102.992 1268.98 Q104.797 1269.33 106.742 1270.02 Z" fill="#000000" fill-rule="evenodd" fill-opacity="1" /><path clip-path="url(#clip110)" d="M 0 0 M124.057 1272.34 Q120.446 1272.34 118.617 1275.9 Q116.811 1279.44 116.811 1286.57 Q116.811 1293.68 118.617 1297.24 Q120.446 1300.78 124.057 1300.78 Q127.691 1300.78 129.496 1297.24 Q131.325 1293.68 131.325 1286.57 Q131.325 1279.44 129.496 1275.9 Q127.691 1272.34 124.057 1272.34 M124.057 1268.63 Q129.867 1268.63 132.922 1273.24 Q136.001 1277.82 136.001 1286.57 Q136.001 1295.3 132.922 1299.9 Q129.867 1304.49 124.057 1304.49 Q118.246 1304.49 115.168 1299.9 Q112.112 1295.3 112.112 1286.57 Q112.112 1277.82 115.168 1273.24 Q118.246 1268.63 124.057 1268.63 Z" fill="#000000" fill-rule="evenodd" fill-opacity="1" /><path clip-path="url(#clip110)" d="M 0 0 M151.07 1272.34 Q147.459 1272.34 145.631 1275.9 Q143.825 1279.44 143.825 1286.57 Q143.825 1293.68 145.631 1297.24 Q147.459 1300.78 151.07 1300.78 Q154.705 1300.78 156.51 1297.24 Q158.339 1293.68 158.339 1286.57 Q158.339 1279.44 156.51 1275.9 Q154.705 1272.34 151.07 1272.34 M151.07 1268.63 Q156.881 1268.63 159.936 1273.24 Q163.015 1277.82 163.015 1286.57 Q163.015 1295.3 159.936 1299.9 Q156.881 1304.49 151.07 1304.49 Q145.26 1304.49 142.182 1299.9 Q139.126 1295.3 139.126 1286.57 Q139.126 1277.82 142.182 1273.24 Q145.26 1268.63 151.07 1268.63 Z" fill="#000000" fill-rule="evenodd" fill-opacity="1" /><path clip-path="url(#clip110)" d="M 0 0 M87.367 1228.95 L87.367 1224.69 Q89.1262 1225.52 90.9318 1225.96 Q92.7373 1226.4 94.4734 1226.4 Q99.103 1226.4 101.534 1223.3 Q103.987 1220.18 104.334 1213.83 Q102.992 1215.82 100.932 1216.89 Q98.8716 1217.95 96.3716 1217.95 Q91.1864 1217.95 88.154 1214.83 Q85.1448 1211.68 85.1448 1206.24 Q85.1448 1200.92 88.2929 1197.7 Q91.441 1194.48 96.6725 1194.48 Q102.668 1194.48 105.816 1199.09 Q108.987 1203.67 108.987 1212.42 Q108.987 1220.59 105.098 1225.48 Q101.233 1230.34 94.6818 1230.34 Q92.9225 1230.34 91.117 1229.99 Q89.3114 1229.64 87.367 1228.95 M96.6725 1214.3 Q99.8206 1214.3 101.649 1212.14 Q103.501 1209.99 103.501 1206.24 Q103.501 1202.51 101.649 1200.36 Q99.8206 1198.19 96.6725 1198.19 Q93.5244 1198.19 91.6725 1200.36 Q89.8438 1202.51 89.8438 1206.24 Q89.8438 1209.99 91.6725 1212.14 Q93.5244 1214.3 96.6725 1214.3 Z" fill="#000000" fill-rule="evenodd" fill-opacity="1" /><path clip-path="url(#clip110)" d="M 0 0 M124.057 1198.19 Q120.446 1198.19 118.617 1201.75 Q116.811 1205.29 116.811 1212.42 Q116.811 1219.53 118.617 1223.09 Q120.446 1226.63 124.057 1226.63 Q127.691 1226.63 129.496 1223.09 Q131.325 1219.53 131.325 1212.42 Q131.325 1205.29 129.496 1201.75 Q127.691 1198.19 124.057 1198.19 M124.057 1194.48 Q129.867 1194.48 132.922 1199.09 Q136.001 1203.67 136.001 1212.42 Q136.001 1221.15 132.922 1225.76 Q129.867 1230.34 124.057 1230.34 Q118.246 1230.34 115.168 1225.76 Q112.112 1221.15 112.112 1212.42 Q112.112 1203.67 115.168 1199.09 Q118.246 1194.48 124.057 1194.48 Z" fill="#000000" fill-rule="evenodd" fill-opacity="1" /><path clip-path="url(#clip110)" d="M 0 0 M151.07 1198.19 Q147.459 1198.19 145.631 1201.75 Q143.825 1205.29 143.825 1212.42 Q143.825 1219.53 145.631 1223.09 Q147.459 1226.63 151.07 1226.63 Q154.705 1226.63 156.51 1223.09 Q158.339 1219.53 158.339 1212.42 Q158.339 1205.29 156.51 1201.75 Q154.705 1198.19 151.07 1198.19 M151.07 1194.48 Q156.881 1194.48 159.936 1199.09 Q163.015 1203.67 163.015 1212.42 Q163.015 1221.15 159.936 1225.76 Q156.881 1230.34 151.07 1230.34 Q145.26 1230.34 142.182 1225.76 Q139.126 1221.15 139.126 1212.42 Q139.126 1203.67 142.182 1199.09 Q145.26 1194.48 151.07 1194.48 Z" fill="#000000" fill-rule="evenodd" fill-opacity="1" /><path clip-path="url(#clip110)" d="M 0 0 M63.6634 1151.58 L71.3023 1151.58 L71.3023 1125.22 L62.9921 1126.88 L62.9921 1122.62 L71.256 1120.96 L75.9319 1120.96 L75.9319 1151.58 L83.5707 1151.58 L83.5707 1155.52 L63.6634 1155.52 L63.6634 1151.58 Z" fill="#000000" fill-rule="evenodd" fill-opacity="1" /><path clip-path="url(#clip110)" d="M 0 0 M92.6679 1151.58 L108.987 1151.58 L108.987 1155.52 L87.0429 1155.52 L87.0429 1151.58 Q89.7049 1148.83 94.2883 1144.2 Q98.8947 1139.55 100.075 1138.2 Q102.321 1135.68 103.2 1133.94 Q104.103 1132.18 104.103 1130.49 Q104.103 1127.74 102.159 1126 Q100.237 1124.27 97.1355 1124.27 Q94.9364 1124.27 92.4827 1125.03 Q90.0522 1125.8 87.2744 1127.35 L87.2744 1122.62 Q90.0985 1121.49 92.5522 1120.91 Q95.0058 1120.33 97.0429 1120.33 Q102.413 1120.33 105.608 1123.02 Q108.802 1125.7 108.802 1130.19 Q108.802 1132.32 107.992 1134.24 Q107.205 1136.14 105.098 1138.74 Q104.52 1139.41 101.418 1142.62 Q98.316 1145.82 92.6679 1151.58 Z" fill="#000000" fill-rule="evenodd" fill-opacity="1" /><path clip-path="url(#clip110)" d="M 0 0 M124.057 1124.04 Q120.446 1124.04 118.617 1127.6 Q116.811 1131.14 116.811 1138.27 Q116.811 1145.38 118.617 1148.94 Q120.446 1152.49 124.057 1152.49 Q127.691 1152.49 129.496 1148.94 Q131.325 1145.38 131.325 1138.27 Q131.325 1131.14 129.496 1127.6 Q127.691 1124.04 124.057 1124.04 M124.057 1120.33 Q129.867 1120.33 132.922 1124.94 Q136.001 1129.52 136.001 1138.27 Q136.001 1147 132.922 1151.61 Q129.867 1156.19 124.057 1156.19 Q118.246 1156.19 115.168 1151.61 Q112.112 1147 112.112 1138.27 Q112.112 1129.52 115.168 1124.94 Q118.246 1120.33 124.057 1120.33 Z" fill="#000000" fill-rule="evenodd" fill-opacity="1" /><path clip-path="url(#clip110)" d="M 0 0 M151.07 1124.04 Q147.459 1124.04 145.631 1127.6 Q143.825 1131.14 143.825 1138.27 Q143.825 1145.38 145.631 1148.94 Q147.459 1152.49 151.07 1152.49 Q154.705 1152.49 156.51 1148.94 Q158.339 1145.38 158.339 1138.27 Q158.339 1131.14 156.51 1127.6 Q154.705 1124.04 151.07 1124.04 M151.07 1120.33 Q156.881 1120.33 159.936 1124.94 Q163.015 1129.52 163.015 1138.27 Q163.015 1147 159.936 1151.61 Q156.881 1156.19 151.07 1156.19 Q145.26 1156.19 142.182 1151.61 Q139.126 1147 139.126 1138.27 Q139.126 1129.52 142.182 1124.94 Q145.26 1120.33 151.07 1120.33 Z" fill="#000000" fill-rule="evenodd" fill-opacity="1" /><polyline clip-path="url(#clip114)" style="stroke:#009af9; stroke-width:4; stroke-opacity:1; fill:none" points="
  248.309,1434.84 250.352,1434.83 252.396,1434.83 254.439,1434.83 256.482,1434.83 258.525,1434.82 260.568,1434.82 262.611,1434.82 264.655,1434.82 266.698,1434.81 
  268.741,1434.81 270.784,1434.81 272.827,1434.81 274.87,1434.8 276.913,1434.8 278.957,1434.8 281,1434.8 283.043,1434.79 285.086,1434.79 287.129,1434.79 
  289.172,1434.79 291.215,1434.78 293.259,1434.78 295.302,1434.78 297.345,1434.78 299.388,1434.77 301.431,1434.77 303.474,1434.77 305.518,1434.77 307.561,1434.76 
  309.604,1434.76 311.647,1434.76 313.69,1434.75 315.733,1434.75 317.776,1434.75 319.82,1434.75 321.863,1434.74 323.906,1434.74 325.949,1434.74 327.992,1434.73 
  330.035,1434.73 332.079,1434.73 334.122,1434.73 336.165,1434.72 338.208,1434.72 340.251,1434.72 342.294,1434.71 344.337,1434.71 346.381,1434.71 348.424,1434.7 
  350.467,1434.7 352.51,1434.7 354.553,1434.69 356.596,1434.69 358.64,1434.69 360.683,1434.68 362.726,1434.68 364.769,1434.68 366.812,1434.67 368.855,1434.67 
  370.898,1434.67 372.942,1434.66 374.985,1434.66 377.028,1434.66 379.071,1434.65 381.114,1434.65 383.157,1434.64 385.2,1434.64 387.244,1434.64 389.287,1434.63 
  391.33,1434.63 393.373,1434.62 395.416,1434.62 397.459,1434.62 399.503,1434.61 401.546,1434.61 403.589,1434.6 405.632,1434.6 407.675,1434.59 409.718,1434.59 
  411.761,1434.58 413.805,1434.58 415.848,1434.57 417.891,1434.57 419.934,1434.56 421.977,1434.55 424.02,1434.55 426.064,1434.54 428.107,1434.54 430.15,1434.53 
  432.193,1434.52 434.236,1434.52 436.279,1434.51 438.322,1434.5 440.366,1434.5 442.409,1434.49 444.452,1434.48 446.495,1434.48 448.538,1434.47 450.581,1434.46 
  452.625,1434.45 454.668,1434.44 456.711,1434.43 458.754,1434.42 460.797,1434.42 462.84,1434.41 464.883,1434.4 466.927,1434.38 468.97,1434.37 471.013,1434.36 
  473.056,1434.35 475.099,1434.34 477.142,1434.33 479.185,1434.31 481.229,1434.3 483.272,1434.28 485.315,1434.27 487.358,1434.25 489.401,1434.24 491.444,1434.22 
  493.488,1434.2 495.531,1434.18 497.574,1434.16 499.617,1434.14 501.66,1434.12 503.703,1434.09 505.746,1434.07 507.79,1434.04 509.833,1434.01 511.876,1433.98 
  513.919,1433.95 515.962,1433.91 518.005,1433.87 520.049,1433.83 522.092,1433.78 524.135,1433.74 526.178,1433.68 528.221,1433.62 530.264,1433.56 532.307,1433.48 
  534.351,1433.4 536.394,1433.31 538.437,1433.21 540.48,1433.09 542.523,1432.96 544.566,1432.8 546.609,1432.61 548.653,1432.39 550.696,1432.12 552.739,1431.78 
  554.782,1431.35 556.825,1430.78 558.868,1429.97 560.912,1428.78 562.955,1426.81 564.998,1422.95 567.041,1411.94 569.084,1124.45 571.127,1461.69 573.17,1447.71 
  575.214,1443.3 577.257,1441.14 579.3,1439.86 581.343,1439.01 583.386,1438.4 585.429,1437.95 587.473,1437.6 589.516,1437.32 591.559,1437.09 593.602,1436.9 
  595.645,1436.74 597.688,1436.6 599.731,1436.48 601.775,1436.38 603.818,1436.28 605.861,1436.2 607.904,1436.13 609.947,1436.06 611.99,1436 614.034,1435.95 
  616.077,1435.9 618.12,1435.85 620.163,1435.81 622.206,1435.77 624.249,1435.73 626.292,1435.7 628.336,1435.67 630.379,1435.64 632.422,1435.61 634.465,1435.58 
  636.508,1435.56 638.551,1435.54 640.594,1435.52 642.638,1435.49 644.681,1435.48 646.724,1435.46 648.767,1435.44 650.81,1435.42 652.853,1435.41 654.897,1435.39 
  656.94,1435.38 658.983,1435.36 661.026,1435.35 663.069,1435.34 665.112,1435.32 667.155,1435.31 669.199,1435.3 671.242,1435.29 673.285,1435.28 675.328,1435.27 
  677.371,1435.26 679.414,1435.25 681.458,1435.24 683.501,1435.23 685.544,1435.22 687.587,1435.21 689.63,1435.21 691.673,1435.2 693.716,1435.19 695.76,1435.18 
  697.803,1435.18 699.846,1435.17 701.889,1435.16 703.932,1435.16 705.975,1435.15 708.019,1435.14 710.062,1435.14 712.105,1435.13 714.148,1435.12 716.191,1435.12 
  718.234,1435.11 720.277,1435.11 722.321,1435.1 724.364,1435.1 726.407,1435.09 728.45,1435.09 730.493,1435.08 732.536,1435.08 734.579,1435.07 736.623,1435.07 
  738.666,1435.06 740.709,1435.06 742.752,1435.05 744.795,1435.05 746.838,1435.05 748.882,1435.04 750.925,1435.04 752.968,1435.03 755.011,1435.03 757.054,1435.02 
  759.097,1435.02 761.14,1435.02 763.184,1435.01 765.227,1435.01 767.27,1435.01 769.313,1435 771.356,1435 773.399,1435 775.443,1434.99 777.486,1434.99 
  779.529,1434.99 781.572,1434.98 783.615,1434.98 785.658,1434.98 787.701,1434.97 789.745,1434.97 791.788,1434.97 793.831,1434.96 795.874,1434.96 797.917,1434.96 
  799.96,1434.95 802.004,1434.95 804.047,1434.95 806.09,1434.94 808.133,1434.94 810.176,1434.94 812.219,1434.94 814.262,1434.93 816.306,1434.93 818.349,1434.93 
  820.392,1434.92 822.435,1434.92 824.478,1434.92 826.521,1434.92 828.564,1434.91 830.608,1434.91 832.651,1434.91 834.694,1434.91 836.737,1434.9 838.78,1434.9 
  840.823,1434.9 842.867,1434.89 844.91,1434.89 846.953,1434.89 848.996,1434.89 851.039,1434.88 853.082,1434.88 855.125,1434.88 857.169,1434.88 859.212,1434.87 
  861.255,1434.87 863.298,1434.87 865.341,1434.87 867.384,1434.86 869.428,1434.86 871.471,1434.86 873.514,1434.86 875.557,1434.85 877.6,1434.85 879.643,1434.85 
  881.686,1434.85 883.73,1434.84 885.773,1434.84 887.816,1434.84 889.859,1434.84 891.902,1434.83 893.945,1434.83 895.988,1434.83 898.032,1434.83 900.075,1434.82 
  902.118,1434.82 904.161,1434.82 906.204,1434.82 908.247,1434.81 910.291,1434.81 912.334,1434.81 914.377,1434.81 916.42,1434.8 918.463,1434.8 920.506,1434.8 
  922.549,1434.8 924.593,1434.79 926.636,1434.79 928.679,1434.79 930.722,1434.79 932.765,1434.78 934.808,1434.78 936.852,1434.78 938.895,1434.78 940.938,1434.77 
  942.981,1434.77 945.024,1434.77 947.067,1434.77 949.11,1434.76 951.154,1434.76 953.197,1434.76 955.24,1434.75 957.283,1434.75 959.326,1434.75 961.369,1434.75 
  963.413,1434.74 965.456,1434.74 967.499,1434.74 969.542,1434.74 971.585,1434.73 973.628,1434.73 975.671,1434.73 977.715,1434.72 979.758,1434.72 981.801,1434.72 
  983.844,1434.71 985.887,1434.71 987.93,1434.71 989.973,1434.7 992.017,1434.7 994.06,1434.7 996.103,1434.7 998.146,1434.69 1000.19,1434.69 1002.23,1434.69 
  1004.28,1434.68 1006.32,1434.68 1008.36,1434.67 1010.41,1434.67 1012.45,1434.67 1014.49,1434.66 1016.53,1434.66 1018.58,1434.66 1020.62,1434.65 1022.66,1434.65 
  1024.71,1434.65 1026.75,1434.64 1028.79,1434.64 1030.84,1434.63 1032.88,1434.63 1034.92,1434.62 1036.97,1434.62 1039.01,1434.62 1041.05,1434.61 1043.1,1434.61 
  1045.14,1434.6 1047.18,1434.6 1049.22,1434.59 1051.27,1434.59 1053.31,1434.58 1055.35,1434.58 1057.4,1434.57 1059.44,1434.57 1061.48,1434.56 1063.53,1434.56 
  1065.57,1434.55 1067.61,1434.54 1069.66,1434.54 1071.7,1434.53 1073.74,1434.53 1075.79,1434.52 1077.83,1434.51 1079.87,1434.51 1081.92,1434.5 1083.96,1434.49 
  1086,1434.48 1088.04,1434.48 1090.09,1434.47 1092.13,1434.46 1094.17,1434.45 1096.22,1434.44 1098.26,1434.44 1100.3,1434.43 1102.35,1434.42 1104.39,1434.41 
  1106.43,1434.4 1108.48,1434.39 1110.52,1434.38 1112.56,1434.36 1114.61,1434.35 1116.65,1434.34 1118.69,1434.33 1120.74,1434.31 1122.78,1434.3 1124.82,1434.29 
  1126.86,1434.27 1128.91,1434.26 1130.95,1434.24 1132.99,1434.22 1135.04,1434.2 1137.08,1434.18 1139.12,1434.16 1141.17,1434.14 1143.21,1434.12 1145.25,1434.1 
  1147.3,1434.07 1149.34,1434.04 1151.38,1434.02 1153.43,1433.98 1155.47,1433.95 1157.51,1433.92 1159.56,1433.88 1161.6,1433.84 1163.64,1433.79 1165.68,1433.74 
  1167.73,1433.69 1169.77,1433.63 1171.81,1433.57 1173.86,1433.5 1175.9,1433.42 1177.94,1433.33 1179.99,1433.23 1182.03,1433.11 1184.07,1432.98 1186.12,1432.83 
  1188.16,1432.65 1190.2,1432.43 1192.25,1432.17 1194.29,1431.84 1196.33,1431.43 1198.38,1430.88 1200.42,1430.12 1202.46,1429.01 1204.5,1427.21 1206.55,1423.8 
  1208.59,1414.89 1210.63,1331.38 1212.68,1467.31 1214.72,1448.87 1216.76,1443.79 1218.81,1441.4 1220.85,1440.02 1222.89,1439.12 1224.94,1438.49 1226.98,1438.01 
  1229.02,1437.65 1231.07,1437.36 1233.11,1437.12 1235.15,1436.93 1237.19,1436.76 1239.24,1436.62 1241.28,1436.5 1243.32,1436.39 1245.37,1436.3 1247.41,1436.21 
  1249.45,1436.14 1251.5,1436.07 1253.54,1436.01 1255.58,1435.95 1257.63,1435.9 1259.67,1435.86 1261.71,1435.81 1263.76,1435.77 1265.8,1435.74 1267.84,1435.7 
  1269.89,1435.67 1271.93,1435.64 1273.97,1435.61 1276.01,1435.59 1278.06,1435.56 1280.1,1435.54 1282.14,1435.52 1284.19,1435.5 1286.23,1435.48 1288.27,1435.46 
  1290.32,1435.44 1292.36,1435.42 1294.4,1435.41 1296.45,1435.39 1298.49,1435.38 1300.53,1435.36 1302.58,1435.35 1304.62,1435.34 1306.66,1435.33 1308.71,1435.31 
  1310.75,1435.3 1312.79,1435.29 1314.83,1435.28 1316.88,1435.27 1318.92,1435.26 1320.96,1435.25 1323.01,1435.24 1325.05,1435.23 1327.09,1435.22 1329.14,1435.22 
  1331.18,1435.21 1333.22,1435.2 1335.27,1435.19 1337.31,1435.18 1339.35,1435.18 1341.4,1435.17 1343.44,1435.16 1345.48,1435.16 1347.53,1435.15 1349.57,1435.14 
  1351.61,1435.14 1353.65,1435.13 1355.7,1435.13 1357.74,1435.12 1359.78,1435.11 1361.83,1435.11 1363.87,1435.1 1365.91,1435.1 1367.96,1435.09 1370,1435.09 
  1372.04,1435.08 1374.09,1435.08 1376.13,1435.07 1378.17,1435.07 1380.22,1435.06 1382.26,1435.06 1384.3,1435.05 1386.34,1435.05 1388.39,1435.05 1390.43,1435.04 
  1392.47,1435.04 1394.52,1435.03 1396.56,1435.03 1398.6,1435.03 1400.65,1435.02 1402.69,1435.02 1404.73,1435.01 1406.78,1435.01 1408.82,1435.01 1410.86,1435 
  1412.91,1435 1414.95,1435 1416.99,1434.99 1419.04,1434.99 1421.08,1434.99 1423.12,1434.98 1425.16,1434.98 1427.21,1434.98 1429.25,1434.97 1431.29,1434.97 
  1433.34,1434.97 1435.38,1434.96 1437.42,1434.96 1439.47,1434.96 1441.51,1434.95 1443.55,1434.95 1445.6,1434.95 1447.64,1434.94 1449.68,1434.94 1451.73,1434.94 
  1453.77,1434.94 1455.81,1434.93 1457.86,1434.93 1459.9,1434.93 1461.94,1434.92 1463.98,1434.92 1466.03,1434.92 1468.07,1434.92 1470.11,1434.91 1472.16,1434.91 
  1474.2,1434.91 1476.24,1434.91 1478.29,1434.9 1480.33,1434.9 1482.37,1434.9 1484.42,1434.9 1486.46,1434.89 1488.5,1434.89 1490.55,1434.89 1492.59,1434.88 
  1494.63,1434.88 1496.68,1434.88 1498.72,1434.88 1500.76,1434.87 1502.8,1434.87 1504.85,1434.87 1506.89,1434.87 1508.93,1434.86 1510.98,1434.86 1513.02,1434.86 
  1515.06,1434.86 1517.11,1434.85 1519.15,1434.85 1521.19,1434.85 1523.24,1434.85 1525.28,1434.84 1527.32,1434.84 1529.37,1434.84 1531.41,1434.84 1533.45,1434.83 
  1535.5,1434.83 1537.54,1434.83 1539.58,1434.83 1541.62,1434.82 1543.67,1434.82 1545.71,1434.82 1547.75,1434.82 1549.8,1434.81 1551.84,1434.81 1553.88,1434.81 
  1555.93,1434.81 1557.97,1434.8 1560.01,1434.8 1562.06,1434.8 1564.1,1434.8 1566.14,1434.79 1568.19,1434.79 1570.23,1434.79 1572.27,1434.79 1574.31,1434.78 
  1576.36,1434.78 1578.4,1434.78 1580.44,1434.78 1582.49,1434.77 1584.53,1434.77 1586.57,1434.77 1588.62,1434.77 1590.66,1434.76 1592.7,1434.76 1594.75,1434.76 
  1596.79,1434.76 1598.83,1434.75 1600.88,1434.75 1602.92,1434.75 1604.96,1434.74 1607.01,1434.74 1609.05,1434.74 1611.09,1434.74 1613.13,1434.73 1615.18,1434.73 
  1617.22,1434.73 1619.26,1434.72 1621.31,1434.72 1623.35,1434.72 1625.39,1434.71 1627.44,1434.71 1629.48,1434.71 1631.52,1434.71 1633.57,1434.7 1635.61,1434.7 
  1637.65,1434.7 1639.7,1434.69 1641.74,1434.69 1643.78,1434.69 1645.83,1434.68 1647.87,1434.68 1649.91,1434.68 1651.95,1434.67 1654,1434.67 1656.04,1434.66 
  1658.08,1434.66 1660.13,1434.66 1662.17,1434.65 1664.21,1434.65 1666.26,1434.65 1668.3,1434.64 1670.34,1434.64 1672.39,1434.63 1674.43,1434.63 1676.47,1434.63 
  1678.52,1434.62 1680.56,1434.62 1682.6,1434.61 1684.65,1434.61 1686.69,1434.6 1688.73,1434.6 1690.77,1434.59 1692.82,1434.59 1694.86,1434.58 1696.9,1434.58 
  1698.95,1434.57 1700.99,1434.57 1703.03,1434.56 1705.08,1434.56 1707.12,1434.55 1709.16,1434.55 1711.21,1434.54 1713.25,1434.53 1715.29,1434.53 1717.34,1434.52 
  1719.38,1434.51 1721.42,1434.51 1723.47,1434.5 1725.51,1434.49 1727.55,1434.49 1729.59,1434.48 1731.64,1434.47 1733.68,1434.46 1735.72,1434.45 1737.77,1434.45 
  1739.81,1434.44 1741.85,1434.43 1743.9,1434.42 1745.94,1434.41 1747.98,1434.4 1750.03,1434.39 1752.07,1434.38 1754.11,1434.37 1756.16,1434.35 1758.2,1434.34 
  1760.24,1434.33 1762.28,1434.32 1764.33,1434.3 1766.37,1434.29 1768.41,1434.27 1770.46,1434.26 1772.5,1434.24 1774.54,1434.22 1776.59,1434.21 1778.63,1434.19 
  1780.67,1434.17 1782.72,1434.15 1784.76,1434.12 1786.8,1434.1 1788.85,1434.08 1790.89,1434.05 1792.93,1434.02 1794.98,1433.99 1797.02,1433.96 1799.06,1433.92 
  1801.1,1433.88 1803.15,1433.84 1805.19,1433.8 1807.23,1433.75 1809.28,1433.7 1811.32,1433.64 1813.36,1433.58 1815.41,1433.51 1817.45,1433.43 1819.49,1433.34 
  1821.54,1433.24 1823.58,1433.13 1825.62,1433 1827.67,1432.85 1829.71,1432.68 1831.75,1432.47 1833.8,1432.21 1835.84,1431.9 1837.88,1431.5 1839.92,1430.98 
  1841.97,1430.26 1844.01,1429.22 1846.05,1427.57 1848.1,1424.53 1850.14,1417.16 1852.18,1372.76 1854.23,1475.9 1856.27,1450.27 1858.31,1444.33 1860.36,1441.7 
  1862.4,1440.2 1864.44,1439.24 1866.49,1438.57 1868.53,1438.08 1870.57,1437.7 1872.62,1437.4 1874.66,1437.16 1876.7,1436.96 1878.74,1436.79 1880.79,1436.64 
  1882.83,1436.52 1884.87,1436.41 1886.92,1436.31 1888.96,1436.23 1891,1436.15 1893.05,1436.08 1895.09,1436.02 1897.13,1435.96 1899.18,1435.91 1901.22,1435.86 
  1903.26,1435.82 1905.31,1435.78 1907.35,1435.74 1909.39,1435.71 1911.44,1435.68 1913.48,1435.65 1915.52,1435.62 1917.56,1435.59 1919.61,1435.57 1921.65,1435.54 
  1923.69,1435.52 1925.74,1435.5 1927.78,1435.48 1929.82,1435.46 1931.87,1435.44 1933.91,1435.43 1935.95,1435.41 1938,1435.4 1940.04,1435.38 1942.08,1435.37 
  1944.13,1435.35 1946.17,1435.34 1948.21,1435.33 1950.25,1435.32 1952.3,1435.3 1954.34,1435.29 1956.38,1435.28 1958.43,1435.27 1960.47,1435.26 1962.51,1435.25 
  1964.56,1435.24 1966.6,1435.23 1968.64,1435.23 1970.69,1435.22 1972.73,1435.21 1974.77,1435.2 1976.82,1435.19 1978.86,1435.19 1980.9,1435.18 1982.95,1435.17 
  1984.99,1435.16 1987.03,1435.16 1989.07,1435.15 1991.12,1435.14 1993.16,1435.14 1995.2,1435.13 1997.25,1435.13 1999.29,1435.12 2001.33,1435.11 2003.38,1435.11 
  2005.42,1435.1 2007.46,1435.1 2009.51,1435.09 2011.55,1435.09 2013.59,1435.08 2015.64,1435.08 2017.68,1435.07 2019.72,1435.07 2021.77,1435.06 2023.81,1435.06 
  2025.85,1435.06 2027.89,1435.05 2029.94,1435.05 2031.98,1435.04 2034.02,1435.04 2036.07,1435.03 2038.11,1435.03 2040.15,1435.03 2042.2,1435.02 2044.24,1435.02 
  2046.28,1435.01 2048.33,1435.01 2050.37,1435.01 2052.41,1435 2054.46,1435 2056.5,1435 2058.54,1434.99 2060.59,1434.99 2062.63,1434.99 2064.67,1434.98 
  2066.71,1434.98 2068.76,1434.98 2070.8,1434.97 2072.84,1434.97 2074.89,1434.97 2076.93,1434.96 2078.97,1434.96 2081.02,1434.96 2083.06,1434.95 2085.1,1434.95 
  2087.15,1434.95 2089.19,1434.95 2091.23,1434.94 2093.28,1434.94 2095.32,1434.94 2097.36,1434.93 2099.41,1434.93 2101.45,1434.93 2103.49,1434.93 2105.53,1434.92 
  2107.58,1434.92 2109.62,1434.92 2111.66,1434.91 2113.71,1434.91 2115.75,1434.91 2117.79,1434.91 2119.84,1434.9 2121.88,1434.9 2123.92,1434.9 2125.97,1434.9 
  2128.01,1434.89 2130.05,1434.89 2132.1,1434.89 2134.14,1434.89 2136.18,1434.88 2138.22,1434.88 2140.27,1434.88 2142.31,1434.87 2144.35,1434.87 2146.4,1434.87 
  2148.44,1434.87 2150.48,1434.86 2152.53,1434.86 2154.57,1434.86 2156.61,1434.86 2158.66,1434.85 2160.7,1434.85 2162.74,1434.85 2164.79,1434.85 2166.83,1434.84 
  2168.87,1434.84 2170.92,1434.84 2172.96,1434.84 2175,1434.84 2177.04,1434.83 2179.09,1434.83 2181.13,1434.83 2183.17,1434.83 2185.22,1434.82 2187.26,1434.82 
  2189.3,1434.82 2191.35,1434.82 2193.39,1434.81 2195.43,1434.81 2197.48,1434.81 2199.52,1434.81 2201.56,1434.8 2203.61,1434.8 2205.65,1434.8 2207.69,1434.8 
  2209.74,1434.79 2211.78,1434.79 2213.82,1434.79 2215.86,1434.78 2217.91,1434.78 2219.95,1434.78 2221.99,1434.78 2224.04,1434.77 2226.08,1434.77 2228.12,1434.77 
  2230.17,1434.77 2232.21,1434.76 2234.25,1434.76 2236.3,1434.76 2238.34,1434.76 2240.38,1434.75 2242.43,1434.75 2244.47,1434.75 2246.51,1434.74 2248.56,1434.74 
  2250.6,1434.74 2252.64,1434.74 2254.68,1434.73 2256.73,1434.73 2258.77,1434.73 2260.81,1434.72 2262.86,1434.72 2264.9,1434.72 2266.94,1434.72 2268.99,1434.71 
  2271.03,1434.71 2273.07,1434.71 2275.12,1434.7 2277.16,1434.7 2279.2,1434.7 2281.25,1434.69 2283.29,1434.69 2285.33,1434.69 2287.38,1434.68 2289.42,1434.68 
  2291.46,1434.68 
  "/>
<path clip-path="url(#clip110)" d="
M1972.98 1247.29 L2280.56 1247.29 L2280.56 1126.33 L1972.98 1126.33  Z
  " fill="#ffffff" fill-rule="evenodd" fill-opacity="1"/>
<polyline clip-path="url(#clip110)" style="stroke:#000000; stroke-width:4; stroke-opacity:1; fill:none" points="
  1972.98,1247.29 2280.56,1247.29 2280.56,1126.33 1972.98,1126.33 1972.98,1247.29 
  "/>
<polyline clip-path="url(#clip110)" style="stroke:#009af9; stroke-width:4; stroke-opacity:1; fill:none" points="
  1997.05,1186.81 2141.43,1186.81 
  "/>
<path clip-path="url(#clip110)" d="M 0 0 M2172.9 1170.8 L2172.9 1178.16 L2181.67 1178.16 L2181.67 1181.47 L2172.9 1181.47 L2172.9 1195.55 Q2172.9 1198.72 2173.76 1199.62 Q2174.64 1200.52 2177.3 1200.52 L2181.67 1200.52 L2181.67 1204.09 L2177.3 1204.09 Q2172.37 1204.09 2170.49 1202.26 Q2168.62 1200.41 2168.62 1195.55 L2168.62 1181.47 L2165.49 1181.47 L2165.49 1178.16 L2168.62 1178.16 L2168.62 1170.8 L2172.9 1170.8 Z" fill="#000000" fill-rule="evenodd" fill-opacity="1" /><path clip-path="url(#clip110)" d="M 0 0 M2197.92 1191.06 Q2192.76 1191.06 2190.77 1192.24 Q2188.78 1193.42 2188.78 1196.26 Q2188.78 1198.53 2190.26 1199.88 Q2191.77 1201.2 2194.34 1201.2 Q2197.88 1201.2 2200.01 1198.7 Q2202.16 1196.17 2202.16 1192.01 L2202.16 1191.06 L2197.92 1191.06 M2206.42 1189.3 L2206.42 1204.09 L2202.16 1204.09 L2202.16 1200.15 Q2200.7 1202.51 2198.53 1203.65 Q2196.35 1204.76 2193.2 1204.76 Q2189.22 1204.76 2186.86 1202.54 Q2184.52 1200.29 2184.52 1196.54 Q2184.52 1192.17 2187.44 1189.95 Q2190.38 1187.72 2196.19 1187.72 L2202.16 1187.72 L2202.16 1187.31 Q2202.16 1184.37 2200.21 1182.77 Q2198.29 1181.15 2194.8 1181.15 Q2192.58 1181.15 2190.47 1181.68 Q2188.36 1182.21 2186.42 1183.28 L2186.42 1179.34 Q2188.76 1178.44 2190.96 1178 Q2193.15 1177.54 2195.24 1177.54 Q2200.86 1177.54 2203.64 1180.45 Q2206.42 1183.37 2206.42 1189.3 Z" fill="#000000" fill-rule="evenodd" fill-opacity="1" /><path clip-path="url(#clip110)" d="M 0 0 M2232.44 1188.44 L2232.44 1204.09 L2228.18 1204.09 L2228.18 1188.58 Q2228.18 1184.9 2226.74 1183.07 Q2225.31 1181.24 2222.44 1181.24 Q2218.99 1181.24 2217 1183.44 Q2215.01 1185.64 2215.01 1189.44 L2215.01 1204.09 L2210.72 1204.09 L2210.72 1178.16 L2215.01 1178.16 L2215.01 1182.19 Q2216.53 1179.85 2218.59 1178.7 Q2220.68 1177.54 2223.39 1177.54 Q2227.85 1177.54 2230.15 1180.32 Q2232.44 1183.07 2232.44 1188.44 Z" fill="#000000" fill-rule="evenodd" fill-opacity="1" /></svg>
